<?xml version="1.0" encoding="UTF-8"?>
<svg xmlns="http://www.w3.org/2000/svg" xmlns:xlink="http://www.w3.org/1999/xlink" width="576pt" height="288pt" viewBox="0 0 576 288">
<defs>
<g>
<g id="glyph-0-0">
<path d="M 0.398438 -3.390625 C 0.398438 -4.203125 0.480469 -4.855469 0.648438 -5.351562 C 0.816406 -5.847656 1.066406 -6.226562 1.394531 -6.496094 C 1.722656 -6.765625 2.140625 -6.898438 2.640625 -6.898438 C 3.007812 -6.898438 3.332031 -6.824219 3.609375 -6.675781 C 3.886719 -6.527344 4.117188 -6.316406 4.296875 -6.035156 C 4.480469 -5.753906 4.621094 -5.414062 4.726562 -5.011719 C 4.828125 -4.613281 4.878906 -4.070312 4.878906 -3.390625 C 4.878906 -2.582031 4.796875 -1.933594 4.632812 -1.4375 C 4.464844 -0.941406 4.21875 -0.558594 3.886719 -0.289062 C 3.558594 -0.0195312 3.140625 0.117188 2.640625 0.117188 C 1.976562 0.117188 1.457031 -0.121094 1.078125 -0.59375 C 0.625 -1.167969 0.398438 -2.097656 0.398438 -3.390625 M 1.265625 -3.390625 C 1.265625 -2.261719 1.398438 -1.511719 1.660156 -1.136719 C 1.925781 -0.761719 2.25 -0.578125 2.640625 -0.578125 C 3.027344 -0.578125 3.351562 -0.765625 3.617188 -1.140625 C 3.878906 -1.515625 4.011719 -2.265625 4.011719 -3.390625 C 4.011719 -4.519531 3.878906 -5.273438 3.617188 -5.644531 C 3.351562 -6.015625 3.023438 -6.203125 2.628906 -6.203125 C 2.242188 -6.203125 1.933594 -6.039062 1.703125 -5.710938 C 1.410156 -5.289062 1.265625 -4.515625 1.265625 -3.390625 Z M 1.265625 -3.390625 "/>
</g>
<g id="glyph-0-1">
<path d="M 3.578125 0 L 2.734375 0 L 2.734375 -5.375 C 2.53125 -5.183594 2.261719 -4.988281 1.933594 -4.796875 C 1.605469 -4.601562 1.308594 -4.457031 1.046875 -4.359375 L 1.046875 -5.175781 C 1.515625 -5.398438 1.929688 -5.664062 2.28125 -5.980469 C 2.636719 -6.296875 2.886719 -6.601562 3.03125 -6.898438 L 3.578125 -6.898438 Z M 3.578125 0 "/>
</g>
<g id="glyph-0-2">
<path d="M 4.832031 -0.8125 L 4.832031 0 L 0.289062 0 C 0.285156 -0.203125 0.316406 -0.398438 0.390625 -0.585938 C 0.503906 -0.894531 0.691406 -1.199219 0.945312 -1.5 C 1.199219 -1.800781 1.566406 -2.148438 2.046875 -2.539062 C 2.796875 -3.152344 3.300781 -3.636719 3.5625 -3.996094 C 3.824219 -4.355469 3.957031 -4.691406 3.957031 -5.011719 C 3.957031 -5.34375 3.835938 -5.628906 3.597656 -5.855469 C 3.359375 -6.085938 3.046875 -6.203125 2.664062 -6.203125 C 2.257812 -6.203125 1.929688 -6.078125 1.6875 -5.835938 C 1.445312 -5.59375 1.320312 -5.253906 1.316406 -4.824219 L 0.449219 -4.914062 C 0.507812 -5.558594 0.734375 -6.050781 1.121094 -6.390625 C 1.507812 -6.730469 2.027344 -6.898438 2.679688 -6.898438 C 3.339844 -6.898438 3.863281 -6.71875 4.246094 -6.351562 C 4.632812 -5.984375 4.824219 -5.53125 4.824219 -4.992188 C 4.824219 -4.71875 4.765625 -4.445312 4.65625 -4.179688 C 4.542969 -3.914062 4.355469 -3.636719 4.09375 -3.34375 C 3.832031 -3.046875 3.398438 -2.644531 2.792969 -2.132812 C 2.289062 -1.707031 1.960938 -1.417969 1.820312 -1.269531 C 1.675781 -1.117188 1.554688 -0.964844 1.460938 -0.8125 Z M 4.832031 -0.8125 "/>
</g>
<g id="glyph-0-3">
<path d="M 0.402344 -1.8125 L 1.246094 -1.925781 C 1.34375 -1.449219 1.507812 -1.105469 1.742188 -0.894531 C 1.972656 -0.683594 2.257812 -0.578125 2.59375 -0.578125 C 2.988281 -0.578125 3.324219 -0.714844 3.597656 -0.988281 C 3.871094 -1.265625 4.007812 -1.605469 4.007812 -2.011719 C 4.007812 -2.398438 3.882812 -2.71875 3.628906 -2.96875 C 3.375 -3.222656 3.054688 -3.347656 2.664062 -3.347656 C 2.503906 -3.347656 2.304688 -3.316406 2.066406 -3.253906 L 2.160156 -3.992188 C 2.21875 -3.988281 2.261719 -3.984375 2.296875 -3.984375 C 2.65625 -3.984375 2.980469 -4.078125 3.265625 -4.265625 C 3.554688 -4.453125 3.699219 -4.742188 3.699219 -5.132812 C 3.699219 -5.441406 3.59375 -5.699219 3.382812 -5.902344 C 3.175781 -6.105469 2.90625 -6.207031 2.574219 -6.207031 C 2.246094 -6.207031 1.972656 -6.101562 1.753906 -5.898438 C 1.535156 -5.691406 1.394531 -5.382812 1.332031 -4.96875 L 0.488281 -5.117188 C 0.589844 -5.683594 0.824219 -6.121094 1.191406 -6.433594 C 1.554688 -6.746094 2.011719 -6.898438 2.554688 -6.898438 C 2.929688 -6.898438 3.273438 -6.820312 3.589844 -6.660156 C 3.90625 -6.496094 4.148438 -6.277344 4.316406 -6 C 4.480469 -5.722656 4.566406 -5.425781 4.566406 -5.113281 C 4.566406 -4.816406 4.484375 -4.546875 4.328125 -4.304688 C 4.167969 -4.058594 3.929688 -3.867188 3.617188 -3.722656 C 4.023438 -3.628906 4.339844 -3.433594 4.566406 -3.136719 C 4.789062 -2.84375 4.902344 -2.472656 4.902344 -2.03125 C 4.902344 -1.429688 4.683594 -0.921875 4.246094 -0.503906 C 3.808594 -0.0859375 3.257812 0.121094 2.585938 0.121094 C 1.984375 0.121094 1.484375 -0.0585938 1.085938 -0.417969 C 0.6875 -0.777344 0.460938 -1.242188 0.402344 -1.8125 Z M 0.402344 -1.8125 "/>
</g>
<g id="glyph-0-4">
<path d="M 3.101562 0 L 3.101562 -1.644531 L 0.121094 -1.644531 L 0.121094 -2.417969 L 3.257812 -6.871094 L 3.945312 -6.871094 L 3.945312 -2.417969 L 4.875 -2.417969 L 4.875 -1.644531 L 3.945312 -1.644531 L 3.945312 0 L 3.101562 0 M 3.101562 -2.417969 L 3.101562 -5.515625 L 0.953125 -2.417969 Z M 3.101562 -2.417969 "/>
</g>
<g id="glyph-1-0">
<path d="M 2.84375 -3.992188 L 3.417969 -3.417969 L 0.207031 -0.207031 C 0.0585938 -0.34375 -0.0585938 -0.507812 -0.140625 -0.6875 C -0.277344 -0.988281 -0.359375 -1.335938 -0.394531 -1.730469 C -0.425781 -2.121094 -0.410156 -2.625 -0.347656 -3.246094 C -0.253906 -4.207031 -0.238281 -4.90625 -0.304688 -5.34375 C -0.375 -5.785156 -0.519531 -6.117188 -0.746094 -6.339844 C -0.980469 -6.578125 -1.265625 -6.691406 -1.597656 -6.683594 C -1.929688 -6.679688 -2.230469 -6.539062 -2.503906 -6.269531 C -2.789062 -5.980469 -2.933594 -5.664062 -2.933594 -5.320312 C -2.933594 -4.976562 -2.78125 -4.648438 -2.480469 -4.34375 L -3.15625 -3.792969 C -3.570312 -4.292969 -3.761719 -4.796875 -3.726562 -5.3125 C -3.691406 -5.824219 -3.445312 -6.3125 -2.984375 -6.773438 C -2.515625 -7.242188 -2.019531 -7.480469 -1.488281 -7.496094 C -0.957031 -7.507812 -0.5 -7.324219 -0.121094 -6.941406 C 0.0742188 -6.746094 0.226562 -6.515625 0.335938 -6.246094 C 0.441406 -5.980469 0.507812 -5.652344 0.53125 -5.257812 C 0.554688 -4.867188 0.535156 -4.273438 0.46875 -3.484375 C 0.410156 -2.824219 0.382812 -2.390625 0.390625 -2.183594 C 0.394531 -1.972656 0.417969 -1.78125 0.460938 -1.609375 Z M 2.84375 -3.992188 "/>
</g>
<g id="glyph-1-1">
<path d="M -2.113281 -2.679688 C -2.6875 -3.253906 -3.09375 -3.773438 -3.324219 -4.242188 C -3.554688 -4.710938 -3.652344 -5.15625 -3.609375 -5.578125 C -3.566406 -6.003906 -3.367188 -6.390625 -3.011719 -6.746094 C -2.753906 -7.007812 -2.472656 -7.183594 -2.167969 -7.273438 C -1.867188 -7.367188 -1.554688 -7.375 -1.226562 -7.308594 C -0.902344 -7.238281 -0.5625 -7.097656 -0.203125 -6.886719 C 0.152344 -6.675781 0.574219 -6.328125 1.054688 -5.847656 C 1.625 -5.277344 2.027344 -4.757812 2.257812 -4.289062 C 2.492188 -3.824219 2.585938 -3.378906 2.546875 -2.953125 C 2.503906 -2.527344 2.304688 -2.140625 1.949219 -1.785156 C 1.480469 -1.316406 0.945312 -1.113281 0.339844 -1.183594 C -0.382812 -1.265625 -1.203125 -1.765625 -2.113281 -2.679688 M -1.5 -3.292969 C -0.703125 -2.492188 -0.078125 -2.054688 0.371094 -1.980469 C 0.820312 -1.902344 1.183594 -2 1.457031 -2.273438 C 1.730469 -2.546875 1.832031 -2.910156 1.75 -3.363281 C 1.671875 -3.816406 1.238281 -4.4375 0.441406 -5.234375 C -0.359375 -6.035156 -0.984375 -6.472656 -1.433594 -6.546875 C -1.882812 -6.625 -2.246094 -6.523438 -2.527344 -6.246094 C -2.800781 -5.96875 -2.902344 -5.636719 -2.832031 -5.242188 C -2.742188 -4.738281 -2.300781 -4.089844 -1.5 -3.292969 Z M -1.5 -3.292969 "/>
</g>
<g id="glyph-1-2">
<path d="M -0.996094 -1.566406 L -0.480469 -2.242188 C -0.0742188 -1.972656 0.285156 -1.847656 0.601562 -1.863281 C 0.914062 -1.878906 1.1875 -2.003906 1.425781 -2.242188 C 1.707031 -2.519531 1.84375 -2.855469 1.84375 -3.242188 C 1.84375 -3.632812 1.699219 -3.96875 1.410156 -4.257812 C 1.136719 -4.53125 0.824219 -4.667969 0.464844 -4.664062 C 0.109375 -4.664062 -0.207031 -4.527344 -0.484375 -4.25 C -0.597656 -4.136719 -0.714844 -3.972656 -0.839844 -3.761719 L -1.296875 -4.351562 C -1.25 -4.386719 -1.21875 -4.417969 -1.191406 -4.441406 C -0.9375 -4.695312 -0.777344 -4.992188 -0.707031 -5.328125 C -0.636719 -5.664062 -0.738281 -5.96875 -1.015625 -6.246094 C -1.234375 -6.464844 -1.488281 -6.570312 -1.78125 -6.566406 C -2.070312 -6.5625 -2.335938 -6.441406 -2.570312 -6.207031 C -2.800781 -5.976562 -2.921875 -5.710938 -2.929688 -5.410156 C -2.9375 -5.109375 -2.820312 -4.789062 -2.570312 -4.453125 L -3.273438 -3.964844 C -3.601562 -4.4375 -3.746094 -4.914062 -3.707031 -5.390625 C -3.667969 -5.871094 -3.457031 -6.300781 -3.074219 -6.683594 C -2.808594 -6.949219 -2.507812 -7.136719 -2.167969 -7.246094 C -1.832031 -7.355469 -1.507812 -7.371094 -1.191406 -7.292969 C -0.875 -7.214844 -0.609375 -7.066406 -0.386719 -6.84375 C -0.179688 -6.632812 -0.0429688 -6.386719 0.015625 -6.101562 C 0.078125 -5.816406 0.046875 -5.511719 -0.0742188 -5.191406 C 0.28125 -5.410156 0.640625 -5.496094 1.007812 -5.449219 C 1.378906 -5.398438 1.71875 -5.214844 2.03125 -4.902344 C 2.457031 -4.476562 2.660156 -3.964844 2.648438 -3.359375 C 2.632812 -2.753906 2.390625 -2.214844 1.914062 -1.742188 C 1.488281 -1.316406 1.007812 -1.089844 0.472656 -1.0625 C -0.0625 -1.035156 -0.554688 -1.203125 -0.996094 -1.566406 Z M -0.996094 -1.566406 "/>
</g>
<g id="glyph-1-3">
<path d="M 2.195312 -2.195312 L 1.03125 -3.359375 L -1.078125 -1.25 L -1.625 -1.796875 L -2.554688 -7.164062 L -2.066406 -7.648438 L 1.082031 -4.5 L 1.738281 -5.15625 L 2.285156 -4.609375 L 1.628906 -3.953125 L 2.789062 -2.789062 L 2.195312 -2.195312 M 0.484375 -3.90625 L -1.707031 -6.09375 L -1.039062 -2.382812 Z M 0.484375 -3.90625 "/>
</g>
<g id="glyph-1-4">
<path d="M -0.992188 -1.554688 L -0.417969 -2.234375 C -0.0664062 -1.976562 0.269531 -1.855469 0.59375 -1.871094 C 0.914062 -1.886719 1.195312 -2.011719 1.433594 -2.25 C 1.722656 -2.539062 1.855469 -2.890625 1.839844 -3.304688 C 1.820312 -3.71875 1.632812 -4.105469 1.277344 -4.464844 C 0.9375 -4.804688 0.570312 -4.976562 0.183594 -4.984375 C -0.203125 -4.988281 -0.550781 -4.835938 -0.863281 -4.527344 C -1.054688 -4.335938 -1.183594 -4.117188 -1.25 -3.875 C -1.320312 -3.632812 -1.328125 -3.398438 -1.277344 -3.171875 L -1.910156 -2.683594 L -3.933594 -5.652344 L -1.519531 -8.066406 L -0.949219 -7.496094 L -2.886719 -5.558594 L -1.84375 -3.992188 C -1.753906 -4.484375 -1.550781 -4.894531 -1.230469 -5.214844 C -0.804688 -5.636719 -0.300781 -5.847656 0.285156 -5.847656 C 0.871094 -5.84375 1.394531 -5.613281 1.855469 -5.152344 C 2.296875 -4.710938 2.546875 -4.203125 2.613281 -3.625 C 2.695312 -2.921875 2.464844 -2.300781 1.925781 -1.761719 C 1.484375 -1.316406 1 -1.082031 0.472656 -1.050781 C -0.0546875 -1.015625 -0.542969 -1.183594 -0.992188 -1.554688 Z M -0.992188 -1.554688 "/>
</g>
<g id="glyph-1-5">
<path d="M -0.292969 -7.046875 L -0.839844 -6.40625 C -1.125 -6.589844 -1.371094 -6.683594 -1.574219 -6.691406 C -1.90625 -6.699219 -2.191406 -6.585938 -2.425781 -6.351562 C -2.617188 -6.160156 -2.730469 -5.941406 -2.769531 -5.691406 C -2.820312 -5.367188 -2.765625 -5.019531 -2.613281 -4.648438 C -2.457031 -4.277344 -2.140625 -3.84375 -1.65625 -3.355469 C -1.730469 -3.714844 -1.71875 -4.054688 -1.617188 -4.367188 C -1.515625 -4.683594 -1.351562 -4.953125 -1.125 -5.179688 C -0.726562 -5.578125 -0.242188 -5.769531 0.332031 -5.757812 C 0.902344 -5.742188 1.421875 -5.503906 1.886719 -5.042969 C 2.191406 -4.738281 2.410156 -4.386719 2.539062 -3.992188 C 2.667969 -3.601562 2.6875 -3.21875 2.597656 -2.851562 C 2.507812 -2.480469 2.316406 -2.152344 2.023438 -1.859375 C 1.527344 -1.363281 0.941406 -1.140625 0.261719 -1.191406 C -0.417969 -1.242188 -1.179688 -1.6875 -2.019531 -2.527344 C -2.957031 -3.46875 -3.46875 -4.324219 -3.546875 -5.097656 C -3.613281 -5.773438 -3.394531 -6.363281 -2.878906 -6.878906 C -2.5 -7.261719 -2.078125 -7.464844 -1.621094 -7.496094 C -1.160156 -7.527344 -0.71875 -7.375 -0.292969 -7.046875 M -0.632812 -2.515625 C -0.425781 -2.308594 -0.1875 -2.15625 0.0859375 -2.058594 C 0.363281 -1.957031 0.628906 -1.933594 0.882812 -1.992188 C 1.136719 -2.050781 1.351562 -2.167969 1.523438 -2.339844 C 1.777344 -2.59375 1.890625 -2.910156 1.871094 -3.292969 C 1.847656 -3.679688 1.660156 -4.046875 1.3125 -4.394531 C 0.976562 -4.730469 0.621094 -4.90625 0.25 -4.921875 C -0.121094 -4.933594 -0.445312 -4.804688 -0.714844 -4.535156 C -0.984375 -4.265625 -1.117188 -3.9375 -1.113281 -3.558594 C -1.105469 -3.175781 -0.945312 -2.828125 -0.632812 -2.515625 Z M -0.632812 -2.515625 "/>
</g>
<g id="glyph-1-6">
<path d="M -3.902344 -4.542969 L -4.476562 -5.117188 L -1.328125 -8.261719 L -0.863281 -7.800781 C -0.84375 -7.160156 -0.714844 -6.417969 -0.472656 -5.566406 C -0.230469 -4.71875 0.0976562 -3.921875 0.507812 -3.179688 C 0.792969 -2.652344 1.164062 -2.132812 1.613281 -1.613281 L 1 -1 C 0.625 -1.390625 0.238281 -1.925781 -0.160156 -2.613281 C -0.558594 -3.296875 -0.871094 -4.023438 -1.105469 -4.796875 C -1.339844 -5.566406 -1.480469 -6.277344 -1.519531 -6.925781 Z M -3.902344 -4.542969 "/>
</g>
<g id="glyph-1-7">
<path d="M -1.433594 -3.835938 C -1.773438 -3.679688 -2.085938 -3.625 -2.375 -3.671875 C -2.660156 -3.722656 -2.921875 -3.863281 -3.15625 -4.097656 C -3.507812 -4.449219 -3.679688 -4.875 -3.664062 -5.371094 C -3.652344 -5.863281 -3.433594 -6.324219 -3.011719 -6.746094 C -2.589844 -7.167969 -2.125 -7.386719 -1.621094 -7.398438 C -1.113281 -7.410156 -0.683594 -7.242188 -0.332031 -6.886719 C -0.105469 -6.664062 0.03125 -6.40625 0.078125 -6.121094 C 0.128906 -5.835938 0.078125 -5.527344 -0.0742188 -5.195312 C 0.324219 -5.398438 0.707031 -5.46875 1.078125 -5.40625 C 1.453125 -5.347656 1.789062 -5.167969 2.089844 -4.867188 C 2.503906 -4.449219 2.707031 -3.953125 2.695312 -3.378906 C 2.683594 -2.800781 2.4375 -2.273438 1.957031 -1.792969 C 1.480469 -1.3125 0.949219 -1.070312 0.371094 -1.058594 C -0.203125 -1.050781 -0.707031 -1.257812 -1.128906 -1.679688 C -1.445312 -1.996094 -1.628906 -2.339844 -1.683594 -2.714844 C -1.738281 -3.089844 -1.652344 -3.460938 -1.433594 -3.835938 M -2.566406 -4.726562 C -2.335938 -4.496094 -2.074219 -4.382812 -1.78125 -4.386719 C -1.484375 -4.386719 -1.222656 -4.507812 -0.984375 -4.742188 C -0.753906 -4.972656 -0.636719 -5.234375 -0.636719 -5.523438 C -0.632812 -5.816406 -0.738281 -6.066406 -0.949219 -6.277344 C -1.167969 -6.496094 -1.425781 -6.605469 -1.726562 -6.601562 C -2.027344 -6.601562 -2.289062 -6.488281 -2.515625 -6.261719 C -2.742188 -6.035156 -2.859375 -5.773438 -2.863281 -5.476562 C -2.867188 -5.179688 -2.769531 -4.929688 -2.566406 -4.726562 M -0.515625 -2.289062 C -0.34375 -2.121094 -0.136719 -1.996094 0.101562 -1.917969 C 0.339844 -1.839844 0.582031 -1.835938 0.832031 -1.90625 C 1.078125 -1.980469 1.292969 -2.105469 1.476562 -2.289062 C 1.761719 -2.574219 1.902344 -2.902344 1.90625 -3.269531 C 1.90625 -3.640625 1.769531 -3.964844 1.484375 -4.25 C 1.199219 -4.535156 0.863281 -4.679688 0.484375 -4.675781 C 0.105469 -4.671875 -0.226562 -4.527344 -0.515625 -4.238281 C -0.792969 -3.957031 -0.933594 -3.632812 -0.933594 -3.261719 C -0.933594 -2.894531 -0.792969 -2.570312 -0.515625 -2.289062 Z M -0.515625 -2.289062 "/>
</g>
<g id="glyph-1-8">
<path d="M -0.753906 -1.496094 L -0.230469 -2.121094 C 0.0859375 -1.898438 0.375 -1.796875 0.632812 -1.8125 C 0.890625 -1.828125 1.128906 -1.945312 1.34375 -2.15625 C 1.527344 -2.339844 1.644531 -2.542969 1.699219 -2.765625 C 1.753906 -2.988281 1.753906 -3.214844 1.703125 -3.441406 C 1.648438 -3.671875 1.535156 -3.933594 1.355469 -4.234375 C 1.175781 -4.53125 0.964844 -4.804688 0.714844 -5.050781 C 0.6875 -5.078125 0.648438 -5.117188 0.59375 -5.167969 C 0.664062 -4.859375 0.65625 -4.539062 0.566406 -4.214844 C 0.476562 -3.890625 0.3125 -3.609375 0.0742188 -3.367188 C -0.328125 -2.964844 -0.816406 -2.769531 -1.386719 -2.785156 C -1.957031 -2.796875 -2.480469 -3.042969 -2.957031 -3.519531 C -3.449219 -4.011719 -3.699219 -4.554688 -3.710938 -5.144531 C -3.71875 -5.738281 -3.507812 -6.25 -3.070312 -6.6875 C -2.753906 -7.003906 -2.378906 -7.207031 -1.949219 -7.300781 C -1.515625 -7.390625 -1.074219 -7.347656 -0.625 -7.167969 C -0.171875 -6.992188 0.351562 -6.601562 0.949219 -6.007812 C 1.570312 -5.386719 1.996094 -4.824219 2.230469 -4.320312 C 2.460938 -3.816406 2.542969 -3.335938 2.46875 -2.878906 C 2.394531 -2.421875 2.175781 -2.011719 1.820312 -1.652344 C 1.441406 -1.273438 1.023438 -1.070312 0.570312 -1.039062 C 0.121094 -1.007812 -0.320312 -1.160156 -0.753906 -1.496094 M -0.453125 -6.082031 C -0.796875 -6.425781 -1.160156 -6.605469 -1.542969 -6.625 C -1.925781 -6.644531 -2.246094 -6.523438 -2.503906 -6.269531 C -2.769531 -6.003906 -2.890625 -5.664062 -2.871094 -5.25 C -2.851562 -4.835938 -2.667969 -4.457031 -2.324219 -4.113281 C -2.015625 -3.804688 -1.667969 -3.644531 -1.289062 -3.640625 C -0.910156 -3.632812 -0.582031 -3.765625 -0.308594 -4.039062 C -0.03125 -4.316406 0.0976562 -4.640625 0.0820312 -5.011719 C 0.0664062 -5.382812 -0.113281 -5.738281 -0.453125 -6.082031 Z M -0.453125 -6.082031 "/>
</g>
<g id="glyph-1-9">
<path d="M 2.527344 -2.527344 L 1.933594 -1.933594 L -1.871094 -5.734375 C -1.875 -5.453125 -1.925781 -5.128906 -2.023438 -4.757812 C -2.121094 -4.386719 -2.226562 -4.074219 -2.34375 -3.820312 L -2.921875 -4.398438 C -2.742188 -4.890625 -2.640625 -5.371094 -2.613281 -5.84375 C -2.589844 -6.316406 -2.628906 -6.710938 -2.734375 -7.023438 L -2.351562 -7.40625 Z M 2.527344 -2.527344 "/>
</g>
<g id="glyph-2-0">
<path d="M 3.34375 0 L 3.34375 -3.640625 L 0.0351562 -8.589844 L 1.417969 -8.589844 L 3.109375 -6 C 3.421875 -5.515625 3.714844 -5.03125 3.984375 -4.546875 C 4.242188 -4.996094 4.554688 -5.5 4.921875 -6.0625 L 6.585938 -8.589844 L 7.910156 -8.589844 L 4.484375 -3.640625 L 4.484375 0 Z M 3.34375 0 "/>
</g>
<g id="glyph-2-1">
<path d="M 5.050781 -2.003906 L 6.140625 -1.867188 C 5.96875 -1.230469 5.648438 -0.738281 5.1875 -0.386719 C 4.71875 -0.0351562 4.125 0.140625 3.40625 0.140625 C 2.492188 0.140625 1.773438 -0.140625 1.238281 -0.699219 C 0.707031 -1.261719 0.4375 -2.046875 0.4375 -3.058594 C 0.4375 -4.105469 0.710938 -4.917969 1.25 -5.496094 C 1.789062 -6.074219 2.484375 -6.363281 3.34375 -6.363281 C 4.179688 -6.363281 4.859375 -6.078125 5.382812 -5.515625 C 5.914062 -4.945312 6.175781 -4.148438 6.175781 -3.125 C 6.175781 -3.058594 6.171875 -2.964844 6.171875 -2.84375 L 1.53125 -2.84375 C 1.566406 -2.15625 1.761719 -1.632812 2.109375 -1.273438 C 2.457031 -0.90625 2.890625 -0.726562 3.410156 -0.726562 C 3.796875 -0.726562 4.125 -0.828125 4.398438 -1.03125 C 4.671875 -1.234375 4.890625 -1.558594 5.050781 -2.003906 M 1.585938 -3.710938 L 5.0625 -3.710938 C 5.015625 -4.230469 4.882812 -4.625 4.664062 -4.886719 C 4.328125 -5.292969 3.890625 -5.496094 3.359375 -5.496094 C 2.871094 -5.496094 2.464844 -5.332031 2.136719 -5.007812 C 1.804688 -4.683594 1.625 -4.25 1.585938 -3.710938 Z M 1.585938 -3.710938 "/>
</g>
<g id="glyph-2-2">
<path d="M 4.851562 -0.765625 C 4.460938 -0.433594 4.085938 -0.199219 3.722656 -0.0625 C 3.363281 0.0703125 2.972656 0.140625 2.5625 0.140625 C 1.875 0.140625 1.351562 -0.0273438 0.984375 -0.359375 C 0.617188 -0.695312 0.433594 -1.121094 0.433594 -1.640625 C 0.433594 -1.945312 0.503906 -2.222656 0.640625 -2.476562 C 0.78125 -2.726562 0.960938 -2.929688 1.1875 -3.082031 C 1.410156 -3.234375 1.664062 -3.347656 1.945312 -3.429688 C 2.152344 -3.480469 2.464844 -3.535156 2.882812 -3.585938 C 3.734375 -3.6875 4.359375 -3.808594 4.765625 -3.949219 C 4.765625 -4.09375 4.769531 -4.183594 4.769531 -4.226562 C 4.769531 -4.652344 4.671875 -4.957031 4.46875 -5.132812 C 4.203125 -5.371094 3.800781 -5.492188 3.269531 -5.492188 C 2.773438 -5.492188 2.40625 -5.402344 2.171875 -5.230469 C 1.933594 -5.054688 1.757812 -4.746094 1.648438 -4.304688 L 0.617188 -4.445312 C 0.707031 -4.886719 0.863281 -5.246094 1.078125 -5.515625 C 1.292969 -5.789062 1.601562 -5.996094 2.007812 -6.144531 C 2.414062 -6.289062 2.886719 -6.363281 3.421875 -6.363281 C 3.953125 -6.363281 4.382812 -6.300781 4.71875 -6.175781 C 5.046875 -6.050781 5.292969 -5.894531 5.449219 -5.703125 C 5.605469 -5.515625 5.714844 -5.273438 5.777344 -4.984375 C 5.8125 -4.804688 5.828125 -4.484375 5.828125 -4.015625 L 5.828125 -2.609375 C 5.828125 -1.628906 5.851562 -1.007812 5.898438 -0.746094 C 5.941406 -0.488281 6.03125 -0.238281 6.164062 0 L 5.0625 0 C 4.953125 -0.21875 4.882812 -0.476562 4.851562 -0.765625 M 4.765625 -3.125 C 4.378906 -2.964844 3.804688 -2.832031 3.039062 -2.726562 C 2.605469 -2.660156 2.300781 -2.589844 2.121094 -2.515625 C 1.941406 -2.433594 1.800781 -2.320312 1.703125 -2.171875 C 1.605469 -2.019531 1.558594 -1.851562 1.558594 -1.671875 C 1.558594 -1.386719 1.664062 -1.152344 1.878906 -0.96875 C 2.089844 -0.78125 2.402344 -0.683594 2.8125 -0.6875 C 3.21875 -0.683594 3.578125 -0.773438 3.898438 -0.953125 C 4.210938 -1.128906 4.445312 -1.371094 4.59375 -1.679688 C 4.707031 -1.917969 4.761719 -2.269531 4.765625 -2.734375 Z M 4.765625 -3.125 "/>
</g>
<g id="glyph-2-3">
<path d="M 0.78125 0 L 0.78125 -6.222656 L 1.726562 -6.222656 L 1.726562 -5.28125 C 1.96875 -5.71875 2.195312 -6.011719 2.398438 -6.152344 C 2.605469 -6.292969 2.828125 -6.363281 3.078125 -6.363281 C 3.429688 -6.363281 3.792969 -6.25 4.160156 -6.023438 L 3.796875 -5.046875 C 3.539062 -5.195312 3.28125 -5.273438 3.023438 -5.273438 C 2.792969 -5.273438 2.585938 -5.203125 2.402344 -5.066406 C 2.21875 -4.925781 2.085938 -4.734375 2.007812 -4.488281 C 1.890625 -4.113281 1.835938 -3.703125 1.835938 -3.257812 L 1.835938 0 Z M 0.78125 0 "/>
</g>
<g id="glyph-3-0">
<path d="M 0 -0.945312 L -8.589844 -0.945312 L -8.589844 -4.753906 C -8.589844 -5.515625 -8.511719 -6.101562 -8.359375 -6.5 C -8.203125 -6.898438 -7.929688 -7.214844 -7.539062 -7.453125 C -7.148438 -7.691406 -6.71875 -7.8125 -6.246094 -7.8125 C -5.636719 -7.8125 -5.121094 -7.613281 -4.703125 -7.21875 C -4.285156 -6.824219 -4.019531 -6.214844 -3.90625 -5.390625 C -3.761719 -5.691406 -3.621094 -5.917969 -3.480469 -6.078125 C -3.175781 -6.40625 -2.792969 -6.722656 -2.335938 -7.019531 L 0 -8.515625 L 0 -7.085938 L -1.785156 -5.945312 C -2.300781 -5.613281 -2.695312 -5.339844 -2.96875 -5.125 C -3.242188 -4.910156 -3.433594 -4.71875 -3.542969 -4.550781 C -3.652344 -4.378906 -3.730469 -4.207031 -3.773438 -4.03125 C -3.800781 -3.902344 -3.8125 -3.691406 -3.8125 -3.398438 L -3.8125 -2.082031 L 0 -2.078125 L 0 -0.945312 M -4.796875 -2.082031 L -4.796875 -4.523438 C -4.796875 -5.042969 -4.851562 -5.449219 -4.960938 -5.742188 C -5.066406 -6.035156 -5.238281 -6.257812 -5.476562 -6.410156 C -5.710938 -6.5625 -5.96875 -6.640625 -6.246094 -6.640625 C -6.652344 -6.640625 -6.984375 -6.492188 -7.25 -6.195312 C -7.507812 -5.902344 -7.640625 -5.433594 -7.640625 -4.800781 L -7.640625 -2.082031 Z M -4.796875 -2.082031 "/>
</g>
<g id="glyph-3-1">
<path d="M -2.003906 -5.050781 L -1.867188 -6.140625 C -1.230469 -5.96875 -0.738281 -5.648438 -0.386719 -5.1875 C -0.0351562 -4.71875 0.140625 -4.125 0.140625 -3.40625 C 0.140625 -2.492188 -0.140625 -1.773438 -0.699219 -1.238281 C -1.261719 -0.707031 -2.046875 -0.441406 -3.058594 -0.441406 C -4.105469 -0.441406 -4.917969 -0.710938 -5.496094 -1.25 C -6.074219 -1.789062 -6.363281 -2.484375 -6.363281 -3.347656 C -6.363281 -4.179688 -6.078125 -4.859375 -5.515625 -5.382812 C -4.945312 -5.914062 -4.148438 -6.175781 -3.121094 -6.175781 C -3.058594 -6.175781 -2.964844 -6.171875 -2.839844 -6.171875 L -2.84375 -1.53125 C -2.15625 -1.566406 -1.632812 -1.761719 -1.269531 -2.109375 C -0.90625 -2.457031 -0.726562 -2.890625 -0.726562 -3.410156 C -0.726562 -3.796875 -0.828125 -4.125 -1.03125 -4.398438 C -1.234375 -4.671875 -1.558594 -4.890625 -2.003906 -5.050781 M -3.710938 -1.589844 L -3.707031 -5.0625 C -4.230469 -5.015625 -4.625 -4.882812 -4.886719 -4.664062 C -5.292969 -4.328125 -5.496094 -3.890625 -5.496094 -3.359375 C -5.496094 -2.871094 -5.332031 -2.464844 -5.007812 -2.136719 C -4.683594 -1.804688 -4.25 -1.625 -3.710938 -1.589844 Z M -3.710938 -1.589844 "/>
</g>
<g id="glyph-3-2">
<path d="M 2.382812 -0.789062 L -6.222656 -0.792969 L -6.222656 -1.753906 L -5.414062 -1.753906 C -5.730469 -1.976562 -5.96875 -2.234375 -6.125 -2.519531 C -6.285156 -2.804688 -6.363281 -3.148438 -6.363281 -3.558594 C -6.363281 -4.085938 -6.226562 -4.554688 -5.953125 -4.960938 C -5.679688 -5.367188 -5.292969 -5.675781 -4.796875 -5.882812 C -4.296875 -6.089844 -3.75 -6.195312 -3.15625 -6.195312 C -2.519531 -6.195312 -1.949219 -6.078125 -1.4375 -5.851562 C -0.929688 -5.621094 -0.539062 -5.289062 -0.265625 -4.855469 C 0.00390625 -4.417969 0.140625 -3.960938 0.140625 -3.480469 C 0.140625 -3.128906 0.0664062 -2.8125 -0.0820312 -2.535156 C -0.230469 -2.253906 -0.417969 -2.023438 -0.644531 -1.84375 L 2.382812 -1.84375 L 2.382812 -0.789062 M -3.078125 -1.746094 C -2.273438 -1.746094 -1.683594 -1.90625 -1.300781 -2.234375 C -0.917969 -2.554688 -0.726562 -2.949219 -0.726562 -3.410156 C -0.726562 -3.878906 -0.925781 -4.28125 -1.320312 -4.613281 C -1.71875 -4.949219 -2.332031 -5.113281 -3.164062 -5.117188 C -3.957031 -5.113281 -4.550781 -4.953125 -4.945312 -4.625 C -5.339844 -4.300781 -5.535156 -3.910156 -5.539062 -3.457031 C -5.535156 -3.007812 -5.328125 -2.609375 -4.90625 -2.265625 C -4.488281 -1.917969 -3.875 -1.746094 -3.078125 -1.746094 Z M -3.078125 -1.746094 "/>
</g>
<g id="glyph-3-3">
<path d="M -3.109375 -0.398438 C -4.261719 -0.398438 -5.117188 -0.71875 -5.671875 -1.359375 C -6.132812 -1.894531 -6.363281 -2.546875 -6.363281 -3.316406 C -6.363281 -4.171875 -6.082031 -4.871094 -5.523438 -5.414062 C -4.960938 -5.957031 -4.1875 -6.226562 -3.199219 -6.226562 C -2.398438 -6.226562 -1.769531 -6.109375 -1.308594 -5.867188 C -0.851562 -5.628906 -0.492188 -5.277344 -0.238281 -4.820312 C 0.0117188 -4.359375 0.140625 -3.859375 0.140625 -3.316406 C 0.140625 -2.445312 -0.140625 -1.742188 -0.695312 -1.203125 C -1.253906 -0.667969 -2.058594 -0.398438 -3.109375 -0.398438 M -3.109375 -1.484375 C -2.3125 -1.484375 -1.71875 -1.65625 -1.320312 -2.003906 C -0.925781 -2.351562 -0.726562 -2.789062 -0.726562 -3.316406 C -0.726562 -3.839844 -0.925781 -4.273438 -1.324219 -4.625 C -1.722656 -4.96875 -2.328125 -5.144531 -3.144531 -5.144531 C -3.914062 -5.144531 -4.5 -4.96875 -4.894531 -4.621094 C -5.292969 -4.269531 -5.492188 -3.835938 -5.492188 -3.316406 C -5.492188 -2.789062 -5.292969 -2.351562 -4.898438 -2.003906 C -4.503906 -1.65625 -3.90625 -1.484375 -3.109375 -1.484375 Z M -3.109375 -1.484375 "/>
</g>
<g id="glyph-3-4">
<path d="M 0 -0.78125 L -6.222656 -0.78125 L -6.222656 -1.730469 L -5.28125 -1.730469 C -5.71875 -1.96875 -6.011719 -2.195312 -6.152344 -2.398438 C -6.292969 -2.605469 -6.363281 -2.828125 -6.363281 -3.078125 C -6.363281 -3.429688 -6.25 -3.792969 -6.023438 -4.160156 L -5.046875 -3.796875 C -5.195312 -3.539062 -5.273438 -3.28125 -5.273438 -3.023438 C -5.273438 -2.792969 -5.203125 -2.585938 -5.066406 -2.402344 C -4.925781 -2.21875 -4.734375 -2.085938 -4.488281 -2.011719 C -4.113281 -1.894531 -3.703125 -1.835938 -3.257812 -1.835938 L 0 -1.835938 Z M 0 -0.78125 "/>
</g>
<g id="glyph-3-5">
<path d="M -0.941406 -3.09375 L -0.0117188 -3.246094 C 0.0507812 -2.949219 0.0820312 -2.683594 0.0820312 -2.449219 C 0.0820312 -2.066406 0.0195312 -1.769531 -0.0976562 -1.558594 C -0.21875 -1.347656 -0.378906 -1.199219 -0.578125 -1.113281 C -0.773438 -1.027344 -1.1875 -0.984375 -1.820312 -0.984375 L -5.402344 -0.984375 L -5.402344 -0.210938 L -6.222656 -0.210938 L -6.222656 -0.984375 L -7.765625 -0.984375 L -8.398438 -2.035156 L -6.222656 -2.035156 L -6.222656 -3.09375 L -5.402344 -3.09375 L -5.402344 -2.035156 L -1.761719 -2.03125 C -1.460938 -2.03125 -1.269531 -2.050781 -1.183594 -2.089844 C -1.097656 -2.125 -1.027344 -2.1875 -0.976562 -2.269531 C -0.925781 -2.355469 -0.902344 -2.472656 -0.902344 -2.632812 C -0.902344 -2.75 -0.914062 -2.902344 -0.941406 -3.09375 Z M -0.941406 -3.09375 "/>
</g>
<g id="glyph-3-6">
<path d="M 0 -4.828125 L -0.785156 -4.828125 C -0.167969 -4.433594 0.140625 -3.851562 0.140625 -3.085938 C 0.140625 -2.589844 0.00390625 -2.136719 -0.269531 -1.71875 C -0.542969 -1.304688 -0.925781 -0.980469 -1.414062 -0.753906 C -1.90625 -0.523438 -2.46875 -0.410156 -3.105469 -0.410156 C -3.726562 -0.410156 -4.289062 -0.511719 -4.796875 -0.722656 C -5.300781 -0.925781 -5.6875 -1.238281 -5.960938 -1.652344 C -6.226562 -2.066406 -6.363281 -2.527344 -6.363281 -3.042969 C -6.363281 -3.417969 -6.285156 -3.75 -6.125 -4.042969 C -5.96875 -4.335938 -5.761719 -4.574219 -5.507812 -4.757812 L -8.589844 -4.757812 L -8.589844 -5.808594 L 0 -5.804688 L 0 -4.828125 M -3.105469 -1.496094 C -2.308594 -1.492188 -1.710938 -1.660156 -1.316406 -2 C -0.921875 -2.332031 -0.726562 -2.730469 -0.726562 -3.1875 C -0.726562 -3.648438 -0.914062 -4.039062 -1.292969 -4.363281 C -1.667969 -4.683594 -2.242188 -4.84375 -3.015625 -4.84375 C -3.867188 -4.84375 -4.492188 -4.679688 -4.890625 -4.351562 C -5.289062 -4.023438 -5.492188 -3.621094 -5.492188 -3.140625 C -5.492188 -2.671875 -5.296875 -2.28125 -4.914062 -1.964844 C -4.53125 -1.652344 -3.929688 -1.492188 -3.105469 -1.496094 Z M -3.105469 -1.496094 "/>
</g>
<g id="glyph-3-7">
</g>
<g id="glyph-3-8">
<path d="M -2.277344 -4.851562 L -2.144531 -5.890625 C -1.429688 -5.773438 -0.871094 -5.484375 -0.464844 -5.019531 C -0.0625 -4.550781 0.140625 -3.976562 0.140625 -3.296875 C 0.140625 -2.445312 -0.136719 -1.761719 -0.695312 -1.246094 C -1.25 -0.726562 -2.046875 -0.46875 -3.085938 -0.46875 C -3.757812 -0.46875 -4.347656 -0.582031 -4.851562 -0.804688 C -5.355469 -1.027344 -5.734375 -1.363281 -5.984375 -1.820312 C -6.238281 -2.273438 -6.363281 -2.769531 -6.363281 -3.304688 C -6.363281 -3.980469 -6.191406 -4.53125 -5.851562 -4.960938 C -5.507812 -5.390625 -5.023438 -5.667969 -4.394531 -5.789062 L -4.234375 -4.765625 C -4.652344 -4.664062 -4.96875 -4.492188 -5.179688 -4.246094 C -5.390625 -3.996094 -5.496094 -3.699219 -5.496094 -3.347656 C -5.496094 -2.8125 -5.304688 -2.382812 -4.925781 -2.050781 C -4.542969 -1.71875 -3.941406 -1.554688 -3.117188 -1.554688 C -2.28125 -1.554688 -1.671875 -1.710938 -1.292969 -2.03125 C -0.917969 -2.351562 -0.726562 -2.769531 -0.726562 -3.289062 C -0.726562 -3.699219 -0.851562 -4.046875 -1.105469 -4.324219 C -1.359375 -4.601562 -1.75 -4.777344 -2.277344 -4.851562 Z M -2.277344 -4.851562 "/>
</g>
<g id="glyph-3-9">
<path d="M -0.765625 -4.851562 C -0.433594 -4.460938 -0.199219 -4.085938 -0.0625 -3.722656 C 0.0703125 -3.363281 0.140625 -2.972656 0.140625 -2.5625 C 0.140625 -1.875 -0.0273438 -1.351562 -0.359375 -0.984375 C -0.695312 -0.617188 -1.121094 -0.433594 -1.640625 -0.433594 C -1.945312 -0.433594 -2.222656 -0.503906 -2.476562 -0.640625 C -2.726562 -0.78125 -2.929688 -0.960938 -3.082031 -1.1875 C -3.234375 -1.410156 -3.347656 -1.664062 -3.429688 -1.945312 C -3.480469 -2.152344 -3.535156 -2.464844 -3.585938 -2.882812 C -3.6875 -3.734375 -3.808594 -4.359375 -3.949219 -4.765625 C -4.09375 -4.765625 -4.183594 -4.769531 -4.226562 -4.769531 C -4.652344 -4.769531 -4.957031 -4.671875 -5.132812 -4.46875 C -5.371094 -4.203125 -5.492188 -3.800781 -5.492188 -3.269531 C -5.492188 -2.773438 -5.402344 -2.40625 -5.230469 -2.171875 C -5.054688 -1.933594 -4.746094 -1.757812 -4.304688 -1.648438 L -4.445312 -0.617188 C -4.886719 -0.707031 -5.246094 -0.863281 -5.515625 -1.078125 C -5.789062 -1.292969 -5.996094 -1.601562 -6.144531 -2.011719 C -6.289062 -2.414062 -6.363281 -2.886719 -6.363281 -3.421875 C -6.363281 -3.953125 -6.300781 -4.382812 -6.175781 -4.71875 C -6.050781 -5.046875 -5.894531 -5.292969 -5.703125 -5.449219 C -5.515625 -5.605469 -5.273438 -5.714844 -4.984375 -5.777344 C -4.804688 -5.8125 -4.484375 -5.828125 -4.015625 -5.828125 L -2.605469 -5.828125 C -1.628906 -5.828125 -1.007812 -5.851562 -0.746094 -5.898438 C -0.488281 -5.941406 -0.238281 -6.03125 0 -6.164062 L 0 -5.0625 C -0.21875 -4.953125 -0.472656 -4.882812 -0.765625 -4.851562 M -3.121094 -4.765625 C -2.964844 -4.378906 -2.832031 -3.804688 -2.726562 -3.039062 C -2.660156 -2.605469 -2.589844 -2.300781 -2.515625 -2.121094 C -2.433594 -1.941406 -2.320312 -1.800781 -2.171875 -1.707031 C -2.019531 -1.605469 -1.851562 -1.558594 -1.671875 -1.558594 C -1.386719 -1.558594 -1.152344 -1.664062 -0.964844 -1.878906 C -0.777344 -2.089844 -0.683594 -2.402344 -0.683594 -2.8125 C -0.683594 -3.21875 -0.773438 -3.578125 -0.953125 -3.898438 C -1.128906 -4.210938 -1.371094 -4.445312 -1.679688 -4.59375 C -1.917969 -4.707031 -2.269531 -4.761719 -2.734375 -4.765625 Z M -3.121094 -4.765625 "/>
</g>
<g id="glyph-3-10">
<path d="M -1.859375 -0.371094 L -2.023438 -1.414062 C -1.601562 -1.46875 -1.28125 -1.632812 -1.058594 -1.902344 C -0.835938 -2.167969 -0.726562 -2.542969 -0.726562 -3.023438 C -0.726562 -3.507812 -0.824219 -3.867188 -1.023438 -4.101562 C -1.21875 -4.335938 -1.449219 -4.453125 -1.714844 -4.453125 C -1.953125 -4.453125 -2.140625 -4.347656 -2.277344 -4.140625 C -2.371094 -3.996094 -2.492188 -3.640625 -2.636719 -3.0625 C -2.832031 -2.289062 -3 -1.753906 -3.144531 -1.457031 C -3.285156 -1.15625 -3.484375 -0.929688 -3.734375 -0.777344 C -3.988281 -0.621094 -4.265625 -0.546875 -4.570312 -0.546875 C -4.847656 -0.546875 -5.105469 -0.609375 -5.339844 -0.734375 C -5.578125 -0.863281 -5.773438 -1.035156 -5.929688 -1.253906 C -6.050781 -1.417969 -6.152344 -1.640625 -6.238281 -1.925781 C -6.320312 -2.207031 -6.363281 -2.511719 -6.363281 -2.835938 C -6.363281 -3.324219 -6.292969 -3.753906 -6.152344 -4.121094 C -6.011719 -4.492188 -5.820312 -4.761719 -5.582031 -4.9375 C -5.339844 -5.113281 -5.019531 -5.234375 -4.617188 -5.304688 L -4.476562 -4.273438 C -4.796875 -4.226562 -5.046875 -4.089844 -5.226562 -3.863281 C -5.40625 -3.640625 -5.496094 -3.324219 -5.496094 -2.914062 C -5.496094 -2.425781 -5.414062 -2.082031 -5.257812 -1.875 C -5.09375 -1.667969 -4.90625 -1.566406 -4.695312 -1.566406 C -4.554688 -1.566406 -4.433594 -1.605469 -4.324219 -1.695312 C -4.210938 -1.777344 -4.117188 -1.914062 -4.042969 -2.097656 C -4.003906 -2.203125 -3.914062 -2.515625 -3.773438 -3.03125 C -3.574219 -3.773438 -3.410156 -4.296875 -3.285156 -4.589844 C -3.15625 -4.886719 -2.972656 -5.117188 -2.730469 -5.285156 C -2.488281 -5.453125 -2.1875 -5.535156 -1.828125 -5.539062 C -1.476562 -5.535156 -1.144531 -5.433594 -0.835938 -5.230469 C -0.523438 -5.023438 -0.285156 -4.726562 -0.113281 -4.34375 C 0.0546875 -3.953125 0.140625 -3.515625 0.140625 -3.03125 C 0.140625 -2.21875 -0.0273438 -1.605469 -0.363281 -1.179688 C -0.699219 -0.757812 -1.199219 -0.488281 -1.859375 -0.371094 Z M -1.859375 -0.371094 "/>
</g>
<g id="glyph-4-0">
<path d="M 5.878906 -2.507812 L 6.828125 -2.269531 C 6.628906 -1.492188 6.269531 -0.898438 5.753906 -0.492188 C 5.238281 -0.0820312 4.609375 0.121094 3.863281 0.121094 C 3.089844 0.121094 2.464844 -0.0351562 1.980469 -0.347656 C 1.496094 -0.664062 1.128906 -1.117188 0.875 -1.714844 C 0.625 -2.308594 0.496094 -2.949219 0.5 -3.632812 C 0.496094 -4.378906 0.640625 -5.027344 0.925781 -5.582031 C 1.210938 -6.136719 1.617188 -6.558594 2.140625 -6.847656 C 2.667969 -7.136719 3.246094 -7.28125 3.875 -7.28125 C 4.59375 -7.28125 5.195312 -7.097656 5.683594 -6.734375 C 6.171875 -6.367188 6.511719 -5.855469 6.703125 -5.195312 L 5.773438 -4.976562 C 5.605469 -5.496094 5.363281 -5.875 5.046875 -6.113281 C 4.734375 -6.351562 4.335938 -6.46875 3.859375 -6.46875 C 3.308594 -6.46875 2.847656 -6.335938 2.476562 -6.074219 C 2.109375 -5.8125 1.847656 -5.457031 1.699219 -5.011719 C 1.550781 -4.566406 1.476562 -4.109375 1.476562 -3.636719 C 1.476562 -3.027344 1.5625 -2.496094 1.742188 -2.042969 C 1.917969 -1.589844 2.195312 -1.25 2.570312 -1.023438 C 2.941406 -0.800781 3.347656 -0.6875 3.785156 -0.6875 C 4.316406 -0.6875 4.765625 -0.839844 5.132812 -1.148438 C 5.5 -1.453125 5.75 -1.90625 5.878906 -2.507812 Z M 5.878906 -2.507812 "/>
</g>
<g id="glyph-4-1">
<path d="M 4.042969 -0.640625 C 3.71875 -0.363281 3.402344 -0.167969 3.101562 -0.0546875 C 2.800781 0.0585938 2.480469 0.117188 2.132812 0.117188 C 1.5625 0.117188 1.125 -0.0234375 0.820312 -0.300781 C 0.515625 -0.578125 0.359375 -0.933594 0.359375 -1.367188 C 0.359375 -1.621094 0.417969 -1.851562 0.535156 -2.0625 C 0.648438 -2.273438 0.800781 -2.441406 0.988281 -2.570312 C 1.175781 -2.695312 1.386719 -2.792969 1.621094 -2.855469 C 1.792969 -2.902344 2.054688 -2.945312 2.402344 -2.988281 C 3.113281 -3.074219 3.632812 -3.171875 3.96875 -3.289062 C 3.972656 -3.410156 3.976562 -3.488281 3.976562 -3.519531 C 3.976562 -3.878906 3.890625 -4.128906 3.726562 -4.277344 C 3.5 -4.476562 3.167969 -4.574219 2.726562 -4.574219 C 2.3125 -4.574219 2.007812 -4.503906 1.808594 -4.359375 C 1.613281 -4.214844 1.464844 -3.957031 1.371094 -3.589844 L 0.511719 -3.707031 C 0.589844 -4.074219 0.71875 -4.371094 0.898438 -4.597656 C 1.078125 -4.824219 1.335938 -4.996094 1.675781 -5.121094 C 2.011719 -5.242188 2.40625 -5.304688 2.851562 -5.304688 C 3.292969 -5.304688 3.652344 -5.25 3.929688 -5.148438 C 4.207031 -5.042969 4.410156 -4.910156 4.539062 -4.753906 C 4.671875 -4.59375 4.761719 -4.394531 4.8125 -4.15625 C 4.84375 -4.003906 4.859375 -3.734375 4.859375 -3.34375 L 4.859375 -2.171875 C 4.859375 -1.355469 4.878906 -0.839844 4.914062 -0.621094 C 4.953125 -0.40625 5.027344 -0.199219 5.136719 0 L 4.21875 0 C 4.128906 -0.183594 4.070312 -0.394531 4.042969 -0.640625 M 3.96875 -2.601562 C 3.652344 -2.472656 3.171875 -2.363281 2.535156 -2.269531 C 2.171875 -2.21875 1.917969 -2.160156 1.765625 -2.09375 C 1.617188 -2.03125 1.503906 -1.933594 1.421875 -1.808594 C 1.339844 -1.683594 1.296875 -1.542969 1.296875 -1.390625 C 1.296875 -1.15625 1.386719 -0.960938 1.566406 -0.804688 C 1.742188 -0.648438 2 -0.570312 2.34375 -0.570312 C 2.683594 -0.570312 2.984375 -0.644531 3.246094 -0.792969 C 3.511719 -0.941406 3.703125 -1.144531 3.828125 -1.402344 C 3.921875 -1.601562 3.96875 -1.894531 3.96875 -2.28125 Z M 3.96875 -2.601562 "/>
</g>
<g id="glyph-4-2">
<path d="M 0.308594 -1.546875 L 1.175781 -1.683594 C 1.226562 -1.335938 1.363281 -1.070312 1.585938 -0.882812 C 1.808594 -0.699219 2.117188 -0.605469 2.519531 -0.605469 C 2.921875 -0.605469 3.222656 -0.6875 3.417969 -0.851562 C 3.613281 -1.015625 3.710938 -1.210938 3.710938 -1.429688 C 3.710938 -1.628906 3.625 -1.785156 3.453125 -1.898438 C 3.332031 -1.976562 3.03125 -2.078125 2.554688 -2.195312 C 1.910156 -2.359375 1.460938 -2.5 1.214844 -2.621094 C 0.964844 -2.738281 0.777344 -2.902344 0.648438 -3.113281 C 0.519531 -3.324219 0.453125 -3.554688 0.453125 -3.808594 C 0.453125 -4.039062 0.507812 -4.253906 0.613281 -4.449219 C 0.71875 -4.648438 0.863281 -4.8125 1.046875 -4.941406 C 1.179688 -5.042969 1.367188 -5.128906 1.605469 -5.199219 C 1.839844 -5.269531 2.09375 -5.304688 2.363281 -5.304688 C 2.769531 -5.304688 3.128906 -5.242188 3.433594 -5.125 C 3.742188 -5.007812 3.96875 -4.851562 4.117188 -4.652344 C 4.261719 -4.449219 4.363281 -4.183594 4.417969 -3.847656 L 3.558594 -3.730469 C 3.519531 -3.996094 3.40625 -4.207031 3.21875 -4.355469 C 3.03125 -4.503906 2.769531 -4.578125 2.425781 -4.578125 C 2.023438 -4.578125 1.734375 -4.511719 1.5625 -4.378906 C 1.390625 -4.246094 1.304688 -4.089844 1.304688 -3.910156 C 1.304688 -3.796875 1.339844 -3.695312 1.410156 -3.601562 C 1.484375 -3.507812 1.59375 -3.429688 1.75 -3.367188 C 1.835938 -3.335938 2.09375 -3.261719 2.523438 -3.144531 C 3.144531 -2.976562 3.578125 -2.84375 3.824219 -2.738281 C 4.070312 -2.632812 4.265625 -2.476562 4.40625 -2.273438 C 4.542969 -2.074219 4.613281 -1.824219 4.613281 -1.523438 C 4.613281 -1.230469 4.527344 -0.953125 4.359375 -0.695312 C 4.1875 -0.4375 3.941406 -0.238281 3.617188 -0.09375 C 3.296875 0.046875 2.929688 0.117188 2.523438 0.117188 C 1.851562 0.117188 1.335938 -0.0234375 0.984375 -0.304688 C 0.628906 -0.582031 0.40625 -0.996094 0.308594 -1.546875 Z M 0.308594 -1.546875 "/>
</g>
<g id="glyph-4-3">
<path d="M 4.210938 -1.671875 L 5.117188 -1.558594 C 4.972656 -1.027344 4.707031 -0.613281 4.320312 -0.320312 C 3.933594 -0.03125 3.4375 0.117188 2.835938 0.117188 C 2.078125 0.117188 1.476562 -0.117188 1.03125 -0.582031 C 0.589844 -1.050781 0.367188 -1.707031 0.367188 -2.546875 C 0.367188 -3.421875 0.589844 -4.097656 1.039062 -4.578125 C 1.488281 -5.0625 2.070312 -5.304688 2.789062 -5.304688 C 3.480469 -5.304688 4.046875 -5.066406 4.488281 -4.59375 C 4.925781 -4.121094 5.148438 -3.457031 5.148438 -2.601562 C 5.148438 -2.550781 5.144531 -2.472656 5.140625 -2.367188 L 1.273438 -2.367188 C 1.308594 -1.796875 1.46875 -1.363281 1.757812 -1.058594 C 2.046875 -0.757812 2.410156 -0.605469 2.84375 -0.605469 C 3.164062 -0.605469 3.4375 -0.691406 3.667969 -0.859375 C 3.894531 -1.027344 4.074219 -1.296875 4.210938 -1.671875 M 1.324219 -3.089844 L 4.21875 -3.089844 C 4.179688 -3.527344 4.070312 -3.855469 3.886719 -4.070312 C 3.605469 -4.410156 3.242188 -4.578125 2.796875 -4.578125 C 2.394531 -4.578125 2.054688 -4.445312 1.78125 -4.175781 C 1.503906 -3.90625 1.351562 -3.542969 1.324219 -3.089844 Z M 1.324219 -3.089844 "/>
</g>
<g id="glyph-4-4">
</g>
<g id="glyph-4-5">
<path d="M 2.578125 -0.785156 L 2.703125 -0.0078125 C 2.457031 0.0429688 2.234375 0.0703125 2.039062 0.0703125 C 1.722656 0.0703125 1.476562 0.0195312 1.296875 -0.0820312 C 1.125 -0.183594 1 -0.316406 0.929688 -0.480469 C 0.855469 -0.644531 0.820312 -0.992188 0.820312 -1.519531 L 0.820312 -4.5 L 0.175781 -4.5 L 0.175781 -5.1875 L 0.820312 -5.1875 L 0.820312 -6.46875 L 1.695312 -6.996094 L 1.695312 -5.1875 L 2.578125 -5.1875 L 2.578125 -4.5 L 1.695312 -4.5 L 1.695312 -1.46875 C 1.695312 -1.21875 1.710938 -1.058594 1.742188 -0.984375 C 1.773438 -0.914062 1.820312 -0.859375 1.890625 -0.816406 C 1.960938 -0.773438 2.0625 -0.75 2.191406 -0.75 C 2.289062 -0.75 2.417969 -0.761719 2.578125 -0.785156 Z M 2.578125 -0.785156 "/>
</g>
<g id="glyph-4-6">
<path d="M 0.621094 1.996094 L 0.523438 1.171875 C 0.714844 1.222656 0.882812 1.25 1.023438 1.25 C 1.21875 1.25 1.375 1.21875 1.492188 1.152344 C 1.609375 1.085938 1.707031 0.996094 1.78125 0.878906 C 1.835938 0.789062 1.925781 0.574219 2.050781 0.226562 C 2.066406 0.175781 2.09375 0.105469 2.128906 0.0078125 L 0.160156 -5.1875 L 1.109375 -5.1875 L 2.1875 -2.183594 C 2.328125 -1.800781 2.453125 -1.402344 2.5625 -0.980469 C 2.664062 -1.386719 2.785156 -1.777344 2.925781 -2.164062 L 4.03125 -5.1875 L 4.914062 -5.1875 L 2.9375 0.0859375 C 2.726562 0.65625 2.5625 1.050781 2.445312 1.265625 C 2.289062 1.554688 2.109375 1.765625 1.910156 1.902344 C 1.707031 2.035156 1.464844 2.105469 1.1875 2.105469 C 1.015625 2.105469 0.828125 2.070312 0.621094 1.996094 Z M 0.621094 1.996094 "/>
</g>
<g id="glyph-4-7">
<path d="M 0.660156 1.988281 L 0.660156 -5.1875 L 1.460938 -5.1875 L 1.460938 -4.511719 C 1.648438 -4.773438 1.863281 -4.972656 2.101562 -5.105469 C 2.335938 -5.238281 2.625 -5.304688 2.964844 -5.304688 C 3.40625 -5.304688 3.796875 -5.1875 4.136719 -4.960938 C 4.472656 -4.734375 4.730469 -4.410156 4.902344 -3.996094 C 5.074219 -3.582031 5.160156 -3.125 5.160156 -2.632812 C 5.160156 -2.101562 5.066406 -1.625 4.875 -1.199219 C 4.683594 -0.773438 4.410156 -0.449219 4.046875 -0.222656 C 3.683594 0.00390625 3.300781 0.117188 2.898438 0.117188 C 2.609375 0.117188 2.34375 0.0546875 2.113281 -0.0703125 C 1.878906 -0.191406 1.6875 -0.347656 1.539062 -0.539062 L 1.539062 1.988281 L 0.660156 1.988281 M 1.453125 -2.5625 C 1.453125 -1.894531 1.589844 -1.402344 1.859375 -1.085938 C 2.128906 -0.765625 2.457031 -0.605469 2.84375 -0.605469 C 3.234375 -0.605469 3.566406 -0.769531 3.84375 -1.101562 C 4.125 -1.429688 4.261719 -1.945312 4.261719 -2.636719 C 4.261719 -3.296875 4.125 -3.792969 3.855469 -4.121094 C 3.582031 -4.449219 3.257812 -4.613281 2.882812 -4.613281 C 2.507812 -4.613281 2.175781 -4.4375 1.886719 -4.089844 C 1.597656 -3.738281 1.453125 -3.230469 1.453125 -2.5625 Z M 1.453125 -2.5625 "/>
</g>
<g id="glyph-4-8">
<path d="M 0.761719 0 L 0.761719 -7.15625 L 1.734375 -7.15625 L 5.492188 -1.539062 L 5.492188 -7.15625 L 6.402344 -7.15625 L 6.402344 0 L 5.429688 0 L 1.671875 -5.625 L 1.671875 0 Z M 0.761719 0 "/>
</g>
<g id="glyph-4-9">
<path d="M 4.058594 0 L 4.058594 -0.761719 C 3.652344 -0.175781 3.105469 0.117188 2.414062 0.117188 C 2.105469 0.117188 1.820312 0.0585938 1.554688 -0.0585938 C 1.289062 -0.175781 1.09375 -0.324219 0.964844 -0.5 C 0.835938 -0.679688 0.746094 -0.894531 0.695312 -1.152344 C 0.65625 -1.324219 0.640625 -1.597656 0.640625 -1.972656 L 0.640625 -5.1875 L 1.519531 -5.1875 L 1.519531 -2.308594 C 1.519531 -1.851562 1.535156 -1.542969 1.570312 -1.382812 C 1.628906 -1.152344 1.746094 -0.96875 1.921875 -0.835938 C 2.101562 -0.707031 2.324219 -0.640625 2.585938 -0.640625 C 2.851562 -0.640625 3.097656 -0.707031 3.328125 -0.84375 C 3.5625 -0.976562 3.726562 -1.160156 3.820312 -1.394531 C 3.917969 -1.625 3.964844 -1.964844 3.964844 -2.40625 L 3.964844 -5.1875 L 4.84375 -5.1875 L 4.84375 0 Z M 4.058594 0 "/>
</g>
<g id="glyph-4-10">
<path d="M 0.648438 0 L 0.648438 -5.1875 L 1.441406 -5.1875 L 1.441406 -4.398438 C 1.640625 -4.765625 1.828125 -5.007812 2 -5.125 C 2.171875 -5.242188 2.359375 -5.304688 2.5625 -5.304688 C 2.859375 -5.304688 3.160156 -5.207031 3.46875 -5.019531 L 3.164062 -4.203125 C 2.949219 -4.332031 2.734375 -4.394531 2.519531 -4.394531 C 2.328125 -4.394531 2.15625 -4.335938 2 -4.222656 C 1.847656 -4.105469 1.738281 -3.945312 1.675781 -3.742188 C 1.578125 -3.429688 1.527344 -3.085938 1.527344 -2.714844 L 1.527344 0 Z M 0.648438 0 "/>
</g>
<g id="glyph-4-11">
<path d="M 0.332031 -2.59375 C 0.332031 -3.554688 0.597656 -4.265625 1.132812 -4.726562 C 1.578125 -5.109375 2.121094 -5.304688 2.765625 -5.304688 C 3.476562 -5.304688 4.058594 -5.070312 4.511719 -4.601562 C 4.964844 -4.136719 5.191406 -3.488281 5.191406 -2.664062 C 5.191406 -2 5.089844 -1.472656 4.890625 -1.089844 C 4.691406 -0.707031 4.398438 -0.410156 4.015625 -0.199219 C 3.632812 0.0117188 3.214844 0.117188 2.765625 0.117188 C 2.039062 0.117188 1.449219 -0.117188 1.003906 -0.582031 C 0.554688 -1.046875 0.332031 -1.71875 0.332031 -2.59375 M 1.234375 -2.59375 C 1.234375 -1.929688 1.378906 -1.429688 1.671875 -1.101562 C 1.960938 -0.769531 2.324219 -0.605469 2.765625 -0.605469 C 3.199219 -0.605469 3.5625 -0.773438 3.851562 -1.101562 C 4.140625 -1.4375 4.289062 -1.941406 4.289062 -2.621094 C 4.289062 -3.261719 4.140625 -3.75 3.851562 -4.078125 C 3.558594 -4.410156 3.195312 -4.574219 2.765625 -4.574219 C 2.324219 -4.574219 1.960938 -4.410156 1.671875 -4.082031 C 1.378906 -3.753906 1.234375 -3.257812 1.234375 -2.59375 Z M 1.234375 -2.59375 "/>
</g>
<g id="glyph-4-12">
<path d="M 0.664062 -6.148438 L 0.664062 -7.15625 L 1.542969 -7.15625 L 1.542969 -6.148438 L 0.664062 -6.148438 M 0.664062 0 L 0.664062 -5.1875 L 1.542969 -5.1875 L 1.542969 0 Z M 0.664062 0 "/>
</g>
<g id="glyph-4-13">
<path d="M 0.660156 0 L 0.660156 -5.1875 L 1.449219 -5.1875 L 1.449219 -4.449219 C 1.832031 -5.019531 2.382812 -5.304688 3.101562 -5.304688 C 3.414062 -5.304688 3.699219 -5.246094 3.960938 -5.132812 C 4.222656 -5.023438 4.421875 -4.875 4.550781 -4.691406 C 4.679688 -4.511719 4.773438 -4.292969 4.824219 -4.042969 C 4.855469 -3.878906 4.875 -3.59375 4.875 -3.1875 L 4.875 0 L 3.992188 0 L 3.992188 -3.15625 C 3.992188 -3.511719 3.960938 -3.78125 3.890625 -3.957031 C 3.824219 -4.136719 3.703125 -4.277344 3.527344 -4.382812 C 3.355469 -4.488281 3.148438 -4.539062 2.914062 -4.539062 C 2.539062 -4.539062 2.21875 -4.421875 1.945312 -4.183594 C 1.675781 -3.945312 1.539062 -3.496094 1.539062 -2.832031 L 1.539062 0 Z M 0.660156 0 "/>
</g>
<g id="glyph-4-14">
<path d="M 2.101562 0 L 0.125 -5.1875 L 1.054688 -5.1875 L 2.167969 -2.078125 C 2.289062 -1.746094 2.398438 -1.398438 2.5 -1.035156 C 2.578125 -1.308594 2.6875 -1.636719 2.828125 -2.023438 L 3.980469 -5.1875 L 4.882812 -5.1875 L 2.921875 0 Z M 2.101562 0 "/>
</g>
<g id="glyph-4-15">
<path d="M -0.152344 1.988281 L -0.152344 1.351562 L 5.671875 1.351562 L 5.671875 1.988281 Z M -0.152344 1.988281 "/>
</g>
</g>
<clipPath id="clip-0">
<path clip-rule="nonzero" d="M 48.816406 5.976562 L 570.019531 5.976562 L 570.019531 196.542969 L 48.816406 196.542969 Z M 48.816406 5.976562 "/>
</clipPath>
<clipPath id="clip-1">
<path clip-rule="nonzero" d="M 48.816406 196 L 70 196 L 70 196.542969 L 48.816406 196.542969 Z M 48.816406 196 "/>
</clipPath>
<clipPath id="clip-2">
<path clip-rule="nonzero" d="M 71 196 L 92 196 L 92 196.542969 L 71 196.542969 Z M 71 196 "/>
</clipPath>
<clipPath id="clip-3">
<path clip-rule="nonzero" d="M 93 185 L 115 185 L 115 196.542969 L 93 196.542969 Z M 93 185 "/>
</clipPath>
<clipPath id="clip-4">
<path clip-rule="nonzero" d="M 93 184 L 115 184 L 115 196.542969 L 93 196.542969 Z M 93 184 "/>
</clipPath>
<clipPath id="clip-5">
<path clip-rule="nonzero" d="M 116 177 L 137 177 L 137 196.542969 L 116 196.542969 Z M 116 177 "/>
</clipPath>
<clipPath id="clip-6">
<path clip-rule="nonzero" d="M 138 169 L 160 169 L 160 196.542969 L 138 196.542969 Z M 138 169 "/>
</clipPath>
<clipPath id="clip-7">
<path clip-rule="nonzero" d="M 161 173 L 182 173 L 182 196.542969 L 161 196.542969 Z M 161 173 "/>
</clipPath>
<clipPath id="clip-8">
<path clip-rule="nonzero" d="M 184 188 L 205 188 L 205 196.542969 L 184 196.542969 Z M 184 188 "/>
</clipPath>
<clipPath id="clip-9">
<path clip-rule="nonzero" d="M 183 188 L 205 188 L 205 196.542969 L 183 196.542969 Z M 183 188 "/>
</clipPath>
<clipPath id="clip-10">
<path clip-rule="nonzero" d="M 206 192 L 227 192 L 227 196.542969 L 206 196.542969 Z M 206 192 "/>
</clipPath>
<clipPath id="clip-11">
<path clip-rule="nonzero" d="M 206 192 L 228 192 L 228 196.542969 L 206 196.542969 Z M 206 192 "/>
</clipPath>
<clipPath id="clip-12">
<path clip-rule="nonzero" d="M 229 191 L 250 191 L 250 196.542969 L 229 196.542969 Z M 229 191 "/>
</clipPath>
<clipPath id="clip-13">
<path clip-rule="nonzero" d="M 228 191 L 250 191 L 250 196.542969 L 228 196.542969 Z M 228 191 "/>
</clipPath>
<clipPath id="clip-14">
<path clip-rule="nonzero" d="M 251 192 L 272 192 L 272 196.542969 L 251 196.542969 Z M 251 192 "/>
</clipPath>
<clipPath id="clip-15">
<path clip-rule="nonzero" d="M 251 192 L 273 192 L 273 196.542969 L 251 196.542969 Z M 251 192 "/>
</clipPath>
<clipPath id="clip-16">
<path clip-rule="nonzero" d="M 274 158 L 295 158 L 295 196.542969 L 274 196.542969 Z M 274 158 "/>
</clipPath>
<clipPath id="clip-17">
<path clip-rule="nonzero" d="M 273 157 L 295 157 L 295 196.542969 L 273 196.542969 Z M 273 157 "/>
</clipPath>
<clipPath id="clip-18">
<path clip-rule="nonzero" d="M 296 181 L 317 181 L 317 196.542969 L 296 196.542969 Z M 296 181 "/>
</clipPath>
<clipPath id="clip-19">
<path clip-rule="nonzero" d="M 296 181 L 318 181 L 318 196.542969 L 296 196.542969 Z M 296 181 "/>
</clipPath>
<clipPath id="clip-20">
<path clip-rule="nonzero" d="M 319 182 L 340 182 L 340 196.542969 L 319 196.542969 Z M 319 182 "/>
</clipPath>
<clipPath id="clip-21">
<path clip-rule="nonzero" d="M 341 185 L 363 185 L 363 196.542969 L 341 196.542969 Z M 341 185 "/>
</clipPath>
<clipPath id="clip-22">
<path clip-rule="nonzero" d="M 364 186 L 385 186 L 385 196.542969 L 364 196.542969 Z M 364 186 "/>
</clipPath>
<clipPath id="clip-23">
<path clip-rule="nonzero" d="M 386 186 L 408 186 L 408 196.542969 L 386 196.542969 Z M 386 186 "/>
</clipPath>
<clipPath id="clip-24">
<path clip-rule="nonzero" d="M 409 185 L 430 185 L 430 196.542969 L 409 196.542969 Z M 409 185 "/>
</clipPath>
<clipPath id="clip-25">
<path clip-rule="nonzero" d="M 431 192 L 453 192 L 453 196.542969 L 431 196.542969 Z M 431 192 "/>
</clipPath>
<clipPath id="clip-26">
<path clip-rule="nonzero" d="M 454 194 L 475 194 L 475 196.542969 L 454 196.542969 Z M 454 194 "/>
</clipPath>
<clipPath id="clip-27">
<path clip-rule="nonzero" d="M 476 187 L 498 187 L 498 196.542969 L 476 196.542969 Z M 476 187 "/>
</clipPath>
<clipPath id="clip-28">
<path clip-rule="nonzero" d="M 499 192 L 520 192 L 520 196.542969 L 499 196.542969 Z M 499 192 "/>
</clipPath>
<clipPath id="clip-29">
<path clip-rule="nonzero" d="M 499 192 L 521 192 L 521 196.542969 L 499 196.542969 Z M 499 192 "/>
</clipPath>
<clipPath id="clip-30">
<path clip-rule="nonzero" d="M 522 185 L 543 185 L 543 196.542969 L 522 196.542969 Z M 522 185 "/>
</clipPath>
<clipPath id="clip-31">
<path clip-rule="nonzero" d="M 521 185 L 543 185 L 543 196.542969 L 521 196.542969 Z M 521 185 "/>
</clipPath>
<clipPath id="clip-32">
<path clip-rule="nonzero" d="M 544 190 L 565 190 L 565 196.542969 L 544 196.542969 Z M 544 190 "/>
</clipPath>
<clipPath id="clip-33">
<path clip-rule="nonzero" d="M 544 189 L 566 189 L 566 196.542969 L 544 196.542969 Z M 544 189 "/>
</clipPath>
</defs>
<rect x="-57.6" y="-28.8" width="691.2" height="345.6" fill="rgb(100%, 100%, 100%)" fill-opacity="1"/>
<rect x="-57.6" y="-28.8" width="691.2" height="345.6" fill="rgb(100%, 100%, 100%)" fill-opacity="1"/>
<path fill="none" stroke-width="1.163976" stroke-linecap="round" stroke-linejoin="round" stroke="rgb(100%, 100%, 100%)" stroke-opacity="1" stroke-miterlimit="10" d="M 0 288 L 576 288 L 576 0 L 0 0 Z M 0 288 "/>
<g clip-path="url(#clip-0)">
<path fill-rule="nonzero" fill="rgb(100%, 100%, 100%)" fill-opacity="1" d="M 48.816406 196.546875 L 570.019531 196.546875 L 570.019531 5.980469 L 48.816406 5.980469 Z M 48.816406 196.546875 "/>
</g>
<g clip-path="url(#clip-1)">
<path fill="none" stroke-width="0.426791" stroke-linecap="butt" stroke-linejoin="miter" stroke="rgb(100%, 100%, 100%)" stroke-opacity="1" stroke-miterlimit="10" d="M 48.816406 196.542969 L 69.097656 196.542969 Z M 48.816406 196.542969 "/>
<path fill="none" stroke-width="0.426791" stroke-linecap="butt" stroke-linejoin="miter" stroke="rgb(100%, 100%, 100%)" stroke-opacity="1" stroke-miterlimit="10" d="M 48.816406 196.542969 L 69.097656 196.542969 Z M 48.816406 196.542969 "/>
</g>
<g clip-path="url(#clip-2)">
<path fill="none" stroke-width="0.426791" stroke-linecap="butt" stroke-linejoin="miter" stroke="rgb(100%, 100%, 100%)" stroke-opacity="1" stroke-miterlimit="10" d="M 71.351562 196.542969 L 91.632812 196.542969 Z M 71.351562 196.542969 "/>
<path fill="none" stroke-width="0.426791" stroke-linecap="butt" stroke-linejoin="miter" stroke="rgb(100%, 100%, 100%)" stroke-opacity="1" stroke-miterlimit="10" d="M 71.351562 196.542969 L 91.632812 196.542969 Z M 71.351562 196.542969 "/>
</g>
<path fill-rule="nonzero" fill="rgb(90.196078%, 62.352941%, 0%)" fill-opacity="1" stroke-width="0.426791" stroke-linecap="butt" stroke-linejoin="miter" stroke="rgb(100%, 100%, 100%)" stroke-opacity="1" stroke-miterlimit="10" d="M 93.886719 185.015625 L 114.167969 185.015625 L 114.167969 143.519531 L 93.886719 143.519531 Z M 93.886719 185.015625 "/>
<g clip-path="url(#clip-3)">
<path fill-rule="nonzero" fill="rgb(33.72549%, 70.588235%, 91.372549%)" fill-opacity="1" d="M 93.886719 196.542969 L 114.167969 196.542969 L 114.167969 185.015625 L 93.886719 185.015625 Z M 93.886719 196.542969 "/>
</g>
<g clip-path="url(#clip-4)">
<path fill="none" stroke-width="0.426791" stroke-linecap="butt" stroke-linejoin="miter" stroke="rgb(100%, 100%, 100%)" stroke-opacity="1" stroke-miterlimit="10" d="M 93.886719 196.542969 L 114.167969 196.542969 L 114.167969 185.015625 L 93.886719 185.015625 Z M 93.886719 196.542969 "/>
</g>
<path fill-rule="nonzero" fill="rgb(90.196078%, 62.352941%, 0%)" fill-opacity="1" stroke-width="0.426791" stroke-linecap="butt" stroke-linejoin="miter" stroke="rgb(100%, 100%, 100%)" stroke-opacity="1" stroke-miterlimit="10" d="M 116.421875 177.914062 L 136.703125 177.914062 L 136.703125 124.605469 L 116.421875 124.605469 Z M 116.421875 177.914062 "/>
<g clip-path="url(#clip-5)">
<path fill-rule="nonzero" fill="rgb(33.72549%, 70.588235%, 91.372549%)" fill-opacity="1" stroke-width="0.426791" stroke-linecap="butt" stroke-linejoin="miter" stroke="rgb(100%, 100%, 100%)" stroke-opacity="1" stroke-miterlimit="10" d="M 116.421875 196.542969 L 136.703125 196.542969 L 136.703125 177.914062 L 116.421875 177.914062 Z M 116.421875 196.542969 "/>
</g>
<path fill-rule="nonzero" fill="rgb(90.196078%, 62.352941%, 0%)" fill-opacity="1" stroke-width="0.426791" stroke-linecap="butt" stroke-linejoin="miter" stroke="rgb(100%, 100%, 100%)" stroke-opacity="1" stroke-miterlimit="10" d="M 138.957031 169.578125 L 159.238281 169.578125 L 159.238281 106.929688 L 138.957031 106.929688 Z M 138.957031 169.578125 "/>
<g clip-path="url(#clip-6)">
<path fill-rule="nonzero" fill="rgb(33.72549%, 70.588235%, 91.372549%)" fill-opacity="1" stroke-width="0.426791" stroke-linecap="butt" stroke-linejoin="miter" stroke="rgb(100%, 100%, 100%)" stroke-opacity="1" stroke-miterlimit="10" d="M 138.957031 196.542969 L 159.238281 196.542969 L 159.238281 169.578125 L 138.957031 169.578125 Z M 138.957031 196.542969 "/>
</g>
<path fill-rule="nonzero" fill="rgb(90.196078%, 62.352941%, 0%)" fill-opacity="1" stroke-width="0.426791" stroke-linecap="butt" stroke-linejoin="miter" stroke="rgb(100%, 100%, 100%)" stroke-opacity="1" stroke-miterlimit="10" d="M 161.492188 173.867188 L 181.773438 173.867188 L 181.773438 121.988281 L 161.492188 121.988281 Z M 161.492188 173.867188 "/>
<g clip-path="url(#clip-7)">
<path fill-rule="nonzero" fill="rgb(33.72549%, 70.588235%, 91.372549%)" fill-opacity="1" stroke-width="0.426791" stroke-linecap="butt" stroke-linejoin="miter" stroke="rgb(100%, 100%, 100%)" stroke-opacity="1" stroke-miterlimit="10" d="M 161.492188 196.542969 L 181.773438 196.542969 L 181.773438 173.867188 L 161.492188 173.867188 Z M 161.492188 196.542969 "/>
</g>
<path fill-rule="nonzero" fill="rgb(90.196078%, 62.352941%, 0%)" fill-opacity="1" stroke-width="0.426791" stroke-linecap="butt" stroke-linejoin="miter" stroke="rgb(100%, 100%, 100%)" stroke-opacity="1" stroke-miterlimit="10" d="M 184.027344 188.539062 L 204.308594 188.539062 L 204.308594 157.953125 L 184.027344 157.953125 Z M 184.027344 188.539062 "/>
<g clip-path="url(#clip-8)">
<path fill-rule="nonzero" fill="rgb(33.72549%, 70.588235%, 91.372549%)" fill-opacity="1" d="M 184.027344 196.542969 L 204.308594 196.542969 L 204.308594 188.539062 L 184.027344 188.539062 Z M 184.027344 196.542969 "/>
</g>
<g clip-path="url(#clip-9)">
<path fill="none" stroke-width="0.426791" stroke-linecap="butt" stroke-linejoin="miter" stroke="rgb(100%, 100%, 100%)" stroke-opacity="1" stroke-miterlimit="10" d="M 184.027344 196.542969 L 204.308594 196.542969 L 204.308594 188.539062 L 184.027344 188.539062 Z M 184.027344 196.542969 "/>
</g>
<path fill-rule="nonzero" fill="rgb(90.196078%, 62.352941%, 0%)" fill-opacity="1" stroke-width="0.426791" stroke-linecap="butt" stroke-linejoin="miter" stroke="rgb(100%, 100%, 100%)" stroke-opacity="1" stroke-miterlimit="10" d="M 206.558594 192.445312 L 226.839844 192.445312 L 226.839844 174.914062 L 206.558594 174.914062 Z M 206.558594 192.445312 "/>
<g clip-path="url(#clip-10)">
<path fill-rule="nonzero" fill="rgb(33.72549%, 70.588235%, 91.372549%)" fill-opacity="1" d="M 206.558594 196.542969 L 226.839844 196.542969 L 226.839844 192.445312 L 206.558594 192.445312 Z M 206.558594 196.542969 "/>
</g>
<g clip-path="url(#clip-11)">
<path fill="none" stroke-width="0.426791" stroke-linecap="butt" stroke-linejoin="miter" stroke="rgb(100%, 100%, 100%)" stroke-opacity="1" stroke-miterlimit="10" d="M 206.558594 196.542969 L 226.839844 196.542969 L 226.839844 192.445312 L 206.558594 192.445312 Z M 206.558594 196.542969 "/>
</g>
<path fill-rule="nonzero" fill="rgb(90.196078%, 62.352941%, 0%)" fill-opacity="1" stroke-width="0.426791" stroke-linecap="butt" stroke-linejoin="miter" stroke="rgb(100%, 100%, 100%)" stroke-opacity="1" stroke-miterlimit="10" d="M 229.09375 191.253906 L 249.375 191.253906 L 249.375 162.335938 L 229.09375 162.335938 Z M 229.09375 191.253906 "/>
<g clip-path="url(#clip-12)">
<path fill-rule="nonzero" fill="rgb(33.72549%, 70.588235%, 91.372549%)" fill-opacity="1" d="M 229.09375 196.542969 L 249.375 196.542969 L 249.375 191.253906 L 229.09375 191.253906 Z M 229.09375 196.542969 "/>
</g>
<g clip-path="url(#clip-13)">
<path fill="none" stroke-width="0.426791" stroke-linecap="butt" stroke-linejoin="miter" stroke="rgb(100%, 100%, 100%)" stroke-opacity="1" stroke-miterlimit="10" d="M 229.09375 196.542969 L 249.375 196.542969 L 249.375 191.253906 L 229.09375 191.253906 Z M 229.09375 196.542969 "/>
</g>
<path fill-rule="nonzero" fill="rgb(90.196078%, 62.352941%, 0%)" fill-opacity="1" stroke-width="0.426791" stroke-linecap="butt" stroke-linejoin="miter" stroke="rgb(100%, 100%, 100%)" stroke-opacity="1" stroke-miterlimit="10" d="M 251.628906 192.589844 L 271.910156 192.589844 L 271.910156 170.484375 L 251.628906 170.484375 Z M 251.628906 192.589844 "/>
<g clip-path="url(#clip-14)">
<path fill-rule="nonzero" fill="rgb(33.72549%, 70.588235%, 91.372549%)" fill-opacity="1" d="M 251.628906 196.542969 L 271.910156 196.542969 L 271.910156 192.589844 L 251.628906 192.589844 Z M 251.628906 196.542969 "/>
</g>
<g clip-path="url(#clip-15)">
<path fill="none" stroke-width="0.426791" stroke-linecap="butt" stroke-linejoin="miter" stroke="rgb(100%, 100%, 100%)" stroke-opacity="1" stroke-miterlimit="10" d="M 251.628906 196.542969 L 271.910156 196.542969 L 271.910156 192.589844 L 251.628906 192.589844 Z M 251.628906 196.542969 "/>
</g>
<path fill-rule="nonzero" fill="rgb(90.196078%, 62.352941%, 0%)" fill-opacity="1" stroke-width="0.426791" stroke-linecap="butt" stroke-linejoin="miter" stroke="rgb(100%, 100%, 100%)" stroke-opacity="1" stroke-miterlimit="10" d="M 274.164062 158.097656 L 294.445312 158.097656 L 294.445312 30.132812 L 274.164062 30.132812 Z M 274.164062 158.097656 "/>
<g clip-path="url(#clip-16)">
<path fill-rule="nonzero" fill="rgb(33.72549%, 70.588235%, 91.372549%)" fill-opacity="1" d="M 274.164062 196.542969 L 294.445312 196.542969 L 294.445312 158.097656 L 274.164062 158.097656 Z M 274.164062 196.542969 "/>
</g>
<g clip-path="url(#clip-17)">
<path fill="none" stroke-width="0.426791" stroke-linecap="butt" stroke-linejoin="miter" stroke="rgb(100%, 100%, 100%)" stroke-opacity="1" stroke-miterlimit="10" d="M 274.164062 196.542969 L 294.445312 196.542969 L 294.445312 158.097656 L 274.164062 158.097656 Z M 274.164062 196.542969 "/>
</g>
<path fill-rule="nonzero" fill="rgb(90.196078%, 62.352941%, 0%)" fill-opacity="1" stroke-width="0.426791" stroke-linecap="butt" stroke-linejoin="miter" stroke="rgb(100%, 100%, 100%)" stroke-opacity="1" stroke-miterlimit="10" d="M 296.699219 181.296875 L 316.980469 181.296875 L 316.980469 125.367188 L 296.699219 125.367188 Z M 296.699219 181.296875 "/>
<g clip-path="url(#clip-18)">
<path fill-rule="nonzero" fill="rgb(33.72549%, 70.588235%, 91.372549%)" fill-opacity="1" d="M 296.699219 196.542969 L 316.980469 196.542969 L 316.980469 181.296875 L 296.699219 181.296875 Z M 296.699219 196.542969 "/>
</g>
<g clip-path="url(#clip-19)">
<path fill="none" stroke-width="0.426791" stroke-linecap="butt" stroke-linejoin="miter" stroke="rgb(100%, 100%, 100%)" stroke-opacity="1" stroke-miterlimit="10" d="M 296.699219 196.542969 L 316.980469 196.542969 L 316.980469 181.296875 L 296.699219 181.296875 Z M 296.699219 196.542969 "/>
</g>
<path fill-rule="nonzero" fill="rgb(90.196078%, 62.352941%, 0%)" fill-opacity="1" stroke-width="0.426791" stroke-linecap="butt" stroke-linejoin="miter" stroke="rgb(100%, 100%, 100%)" stroke-opacity="1" stroke-miterlimit="10" d="M 319.234375 182.296875 L 339.515625 182.296875 L 339.515625 120.648438 L 319.234375 120.648438 Z M 319.234375 182.296875 "/>
<g clip-path="url(#clip-20)">
<path fill-rule="nonzero" fill="rgb(33.72549%, 70.588235%, 91.372549%)" fill-opacity="1" stroke-width="0.426791" stroke-linecap="butt" stroke-linejoin="miter" stroke="rgb(100%, 100%, 100%)" stroke-opacity="1" stroke-miterlimit="10" d="M 319.234375 196.542969 L 339.515625 196.542969 L 339.515625 182.296875 L 319.234375 182.296875 Z M 319.234375 196.542969 "/>
</g>
<path fill-rule="nonzero" fill="rgb(90.196078%, 62.352941%, 0%)" fill-opacity="1" stroke-width="0.426791" stroke-linecap="butt" stroke-linejoin="miter" stroke="rgb(100%, 100%, 100%)" stroke-opacity="1" stroke-miterlimit="10" d="M 341.769531 185.347656 L 362.050781 185.347656 L 362.050781 119.507812 L 341.769531 119.507812 Z M 341.769531 185.347656 "/>
<g clip-path="url(#clip-21)">
<path fill-rule="nonzero" fill="rgb(33.72549%, 70.588235%, 91.372549%)" fill-opacity="1" stroke-width="0.426791" stroke-linecap="butt" stroke-linejoin="miter" stroke="rgb(100%, 100%, 100%)" stroke-opacity="1" stroke-miterlimit="10" d="M 341.769531 196.542969 L 362.050781 196.542969 L 362.050781 185.347656 L 341.769531 185.347656 Z M 341.769531 196.542969 "/>
</g>
<path fill-rule="nonzero" fill="rgb(90.196078%, 62.352941%, 0%)" fill-opacity="1" stroke-width="0.426791" stroke-linecap="butt" stroke-linejoin="miter" stroke="rgb(100%, 100%, 100%)" stroke-opacity="1" stroke-miterlimit="10" d="M 364.304688 186.300781 L 384.585938 186.300781 L 384.585938 126.796875 L 364.304688 126.796875 Z M 364.304688 186.300781 "/>
<g clip-path="url(#clip-22)">
<path fill-rule="nonzero" fill="rgb(33.72549%, 70.588235%, 91.372549%)" fill-opacity="1" stroke-width="0.426791" stroke-linecap="butt" stroke-linejoin="miter" stroke="rgb(100%, 100%, 100%)" stroke-opacity="1" stroke-miterlimit="10" d="M 364.304688 196.542969 L 384.585938 196.542969 L 384.585938 186.300781 L 364.304688 186.300781 Z M 364.304688 196.542969 "/>
</g>
<path fill-rule="nonzero" fill="rgb(90.196078%, 62.352941%, 0%)" fill-opacity="1" stroke-width="0.426791" stroke-linecap="butt" stroke-linejoin="miter" stroke="rgb(100%, 100%, 100%)" stroke-opacity="1" stroke-miterlimit="10" d="M 386.839844 186.96875 L 407.121094 186.96875 L 407.121094 122.890625 L 386.839844 122.890625 Z M 386.839844 186.96875 "/>
<g clip-path="url(#clip-23)">
<path fill-rule="nonzero" fill="rgb(33.72549%, 70.588235%, 91.372549%)" fill-opacity="1" stroke-width="0.426791" stroke-linecap="butt" stroke-linejoin="miter" stroke="rgb(100%, 100%, 100%)" stroke-opacity="1" stroke-miterlimit="10" d="M 386.839844 196.542969 L 407.121094 196.542969 L 407.121094 186.96875 L 386.839844 186.96875 Z M 386.839844 196.542969 "/>
</g>
<path fill-rule="nonzero" fill="rgb(90.196078%, 62.352941%, 0%)" fill-opacity="1" stroke-width="0.426791" stroke-linecap="butt" stroke-linejoin="miter" stroke="rgb(100%, 100%, 100%)" stroke-opacity="1" stroke-miterlimit="10" d="M 409.371094 185.394531 L 429.652344 185.394531 L 429.652344 112.027344 L 409.371094 112.027344 Z M 409.371094 185.394531 "/>
<g clip-path="url(#clip-24)">
<path fill-rule="nonzero" fill="rgb(33.72549%, 70.588235%, 91.372549%)" fill-opacity="1" stroke-width="0.426791" stroke-linecap="butt" stroke-linejoin="miter" stroke="rgb(100%, 100%, 100%)" stroke-opacity="1" stroke-miterlimit="10" d="M 409.371094 196.542969 L 429.652344 196.542969 L 429.652344 185.394531 L 409.371094 185.394531 Z M 409.371094 196.542969 "/>
</g>
<path fill-rule="nonzero" fill="rgb(90.196078%, 62.352941%, 0%)" fill-opacity="1" stroke-width="0.426791" stroke-linecap="butt" stroke-linejoin="miter" stroke="rgb(100%, 100%, 100%)" stroke-opacity="1" stroke-miterlimit="10" d="M 431.90625 192.828125 L 452.1875 192.828125 L 452.1875 165.007812 L 431.90625 165.007812 Z M 431.90625 192.828125 "/>
<g clip-path="url(#clip-25)">
<path fill-rule="nonzero" fill="rgb(33.72549%, 70.588235%, 91.372549%)" fill-opacity="1" stroke-width="0.426791" stroke-linecap="butt" stroke-linejoin="miter" stroke="rgb(100%, 100%, 100%)" stroke-opacity="1" stroke-miterlimit="10" d="M 431.90625 196.542969 L 452.1875 196.542969 L 452.1875 192.828125 L 431.90625 192.828125 Z M 431.90625 196.542969 "/>
</g>
<path fill-rule="nonzero" fill="rgb(90.196078%, 62.352941%, 0%)" fill-opacity="1" stroke-width="0.426791" stroke-linecap="butt" stroke-linejoin="miter" stroke="rgb(100%, 100%, 100%)" stroke-opacity="1" stroke-miterlimit="10" d="M 454.441406 194.304688 L 474.722656 194.304688 L 474.722656 168.769531 L 454.441406 168.769531 Z M 454.441406 194.304688 "/>
<g clip-path="url(#clip-26)">
<path fill-rule="nonzero" fill="rgb(33.72549%, 70.588235%, 91.372549%)" fill-opacity="1" stroke-width="0.426791" stroke-linecap="butt" stroke-linejoin="miter" stroke="rgb(100%, 100%, 100%)" stroke-opacity="1" stroke-miterlimit="10" d="M 454.441406 196.542969 L 474.722656 196.542969 L 474.722656 194.304688 L 454.441406 194.304688 Z M 454.441406 196.542969 "/>
</g>
<path fill-rule="nonzero" fill="rgb(90.196078%, 62.352941%, 0%)" fill-opacity="1" stroke-width="0.426791" stroke-linecap="butt" stroke-linejoin="miter" stroke="rgb(100%, 100%, 100%)" stroke-opacity="1" stroke-miterlimit="10" d="M 476.976562 187.394531 L 497.257812 187.394531 L 497.257812 96.542969 L 476.976562 96.542969 Z M 476.976562 187.394531 "/>
<g clip-path="url(#clip-27)">
<path fill-rule="nonzero" fill="rgb(33.72549%, 70.588235%, 91.372549%)" fill-opacity="1" stroke-width="0.426791" stroke-linecap="butt" stroke-linejoin="miter" stroke="rgb(100%, 100%, 100%)" stroke-opacity="1" stroke-miterlimit="10" d="M 476.976562 196.542969 L 497.257812 196.542969 L 497.257812 187.394531 L 476.976562 187.394531 Z M 476.976562 196.542969 "/>
</g>
<path fill-rule="nonzero" fill="rgb(90.196078%, 62.352941%, 0%)" fill-opacity="1" stroke-width="0.426791" stroke-linecap="butt" stroke-linejoin="miter" stroke="rgb(100%, 100%, 100%)" stroke-opacity="1" stroke-miterlimit="10" d="M 499.511719 192.253906 L 519.792969 192.253906 L 519.792969 155.476562 L 499.511719 155.476562 Z M 499.511719 192.253906 "/>
<g clip-path="url(#clip-28)">
<path fill-rule="nonzero" fill="rgb(33.72549%, 70.588235%, 91.372549%)" fill-opacity="1" d="M 499.511719 196.542969 L 519.792969 196.542969 L 519.792969 192.253906 L 499.511719 192.253906 Z M 499.511719 196.542969 "/>
</g>
<g clip-path="url(#clip-29)">
<path fill="none" stroke-width="0.426791" stroke-linecap="butt" stroke-linejoin="miter" stroke="rgb(100%, 100%, 100%)" stroke-opacity="1" stroke-miterlimit="10" d="M 499.511719 196.542969 L 519.792969 196.542969 L 519.792969 192.253906 L 499.511719 192.253906 Z M 499.511719 196.542969 "/>
</g>
<path fill-rule="nonzero" fill="rgb(90.196078%, 62.352941%, 0%)" fill-opacity="1" stroke-width="0.426791" stroke-linecap="butt" stroke-linejoin="miter" stroke="rgb(100%, 100%, 100%)" stroke-opacity="1" stroke-miterlimit="10" d="M 522.046875 185.726562 L 542.328125 185.726562 L 542.328125 106.40625 L 522.046875 106.40625 Z M 522.046875 185.726562 "/>
<g clip-path="url(#clip-30)">
<path fill-rule="nonzero" fill="rgb(33.72549%, 70.588235%, 91.372549%)" fill-opacity="1" d="M 522.046875 196.542969 L 542.328125 196.542969 L 542.328125 185.730469 L 522.046875 185.730469 Z M 522.046875 196.542969 "/>
</g>
<g clip-path="url(#clip-31)">
<path fill="none" stroke-width="0.426791" stroke-linecap="butt" stroke-linejoin="miter" stroke="rgb(100%, 100%, 100%)" stroke-opacity="1" stroke-miterlimit="10" d="M 522.046875 196.542969 L 542.328125 196.542969 L 542.328125 185.730469 L 522.046875 185.730469 Z M 522.046875 196.542969 "/>
</g>
<path fill-rule="nonzero" fill="rgb(90.196078%, 62.352941%, 0%)" fill-opacity="1" stroke-width="0.426791" stroke-linecap="butt" stroke-linejoin="miter" stroke="rgb(100%, 100%, 100%)" stroke-opacity="1" stroke-miterlimit="10" d="M 544.582031 190.207031 L 564.863281 190.207031 L 564.863281 129.847656 L 544.582031 129.847656 Z M 544.582031 190.207031 "/>
<g clip-path="url(#clip-32)">
<path fill-rule="nonzero" fill="rgb(33.72549%, 70.588235%, 91.372549%)" fill-opacity="1" d="M 544.582031 196.542969 L 564.863281 196.542969 L 564.863281 190.207031 L 544.582031 190.207031 Z M 544.582031 196.542969 "/>
</g>
<g clip-path="url(#clip-33)">
<path fill="none" stroke-width="0.426791" stroke-linecap="butt" stroke-linejoin="miter" stroke="rgb(100%, 100%, 100%)" stroke-opacity="1" stroke-miterlimit="10" d="M 544.582031 196.542969 L 564.863281 196.542969 L 564.863281 190.207031 L 544.582031 190.207031 Z M 544.582031 196.542969 "/>
</g>
<path fill="none" stroke-width="1.066978" stroke-linecap="square" stroke-linejoin="round" stroke="rgb(0%, 0%, 0%)" stroke-opacity="1" stroke-miterlimit="10" d="M 48.816406 196.546875 L 48.816406 5.976562 "/>
<g fill="rgb(0%, 0%, 0%)" fill-opacity="1">
<use xlink:href="#glyph-0-0" x="38.097656" y="200.480469"/>
</g>
<g fill="rgb(0%, 0%, 0%)" fill-opacity="1">
<use xlink:href="#glyph-0-1" x="22.082031" y="152.839844"/>
<use xlink:href="#glyph-0-0" x="27.421094" y="152.839844"/>
<use xlink:href="#glyph-0-0" x="32.760156" y="152.839844"/>
<use xlink:href="#glyph-0-0" x="38.099219" y="152.839844"/>
</g>
<g fill="rgb(0%, 0%, 0%)" fill-opacity="1">
<use xlink:href="#glyph-0-2" x="22.082031" y="105.199219"/>
<use xlink:href="#glyph-0-0" x="27.421094" y="105.199219"/>
<use xlink:href="#glyph-0-0" x="32.760156" y="105.199219"/>
<use xlink:href="#glyph-0-0" x="38.099219" y="105.199219"/>
</g>
<g fill="rgb(0%, 0%, 0%)" fill-opacity="1">
<use xlink:href="#glyph-0-3" x="22.082031" y="57.554688"/>
<use xlink:href="#glyph-0-0" x="27.421094" y="57.554688"/>
<use xlink:href="#glyph-0-0" x="32.760156" y="57.554688"/>
<use xlink:href="#glyph-0-0" x="38.099219" y="57.554688"/>
</g>
<g fill="rgb(0%, 0%, 0%)" fill-opacity="1">
<use xlink:href="#glyph-0-4" x="22.082031" y="9.914062"/>
<use xlink:href="#glyph-0-0" x="27.421094" y="9.914062"/>
<use xlink:href="#glyph-0-0" x="32.760156" y="9.914062"/>
<use xlink:href="#glyph-0-0" x="38.099219" y="9.914062"/>
</g>
<path fill="none" stroke-width="1.163976" stroke-linecap="butt" stroke-linejoin="round" stroke="rgb(0%, 0%, 0%)" stroke-opacity="1" stroke-miterlimit="10" d="M 45.828125 196.542969 L 48.816406 196.542969 "/>
<path fill="none" stroke-width="1.163976" stroke-linecap="butt" stroke-linejoin="round" stroke="rgb(0%, 0%, 0%)" stroke-opacity="1" stroke-miterlimit="10" d="M 45.828125 148.902344 L 48.816406 148.902344 "/>
<path fill="none" stroke-width="1.163976" stroke-linecap="butt" stroke-linejoin="round" stroke="rgb(0%, 0%, 0%)" stroke-opacity="1" stroke-miterlimit="10" d="M 45.828125 101.261719 L 48.816406 101.261719 "/>
<path fill="none" stroke-width="1.163976" stroke-linecap="butt" stroke-linejoin="round" stroke="rgb(0%, 0%, 0%)" stroke-opacity="1" stroke-miterlimit="10" d="M 45.828125 53.621094 L 48.816406 53.621094 "/>
<path fill="none" stroke-width="1.163976" stroke-linecap="butt" stroke-linejoin="round" stroke="rgb(0%, 0%, 0%)" stroke-opacity="1" stroke-miterlimit="10" d="M 45.828125 5.980469 L 48.816406 5.980469 "/>
<path fill="none" stroke-width="1.066978" stroke-linecap="square" stroke-linejoin="round" stroke="rgb(0%, 0%, 0%)" stroke-opacity="1" stroke-miterlimit="10" d="M 48.816406 196.546875 L 570.023438 196.546875 "/>
<path fill="none" stroke-width="1.163976" stroke-linecap="butt" stroke-linejoin="round" stroke="rgb(0%, 0%, 0%)" stroke-opacity="1" stroke-miterlimit="10" d="M 58.957031 199.535156 L 58.957031 196.546875 "/>
<path fill="none" stroke-width="1.163976" stroke-linecap="butt" stroke-linejoin="round" stroke="rgb(0%, 0%, 0%)" stroke-opacity="1" stroke-miterlimit="10" d="M 81.492188 199.535156 L 81.492188 196.546875 "/>
<path fill="none" stroke-width="1.163976" stroke-linecap="butt" stroke-linejoin="round" stroke="rgb(0%, 0%, 0%)" stroke-opacity="1" stroke-miterlimit="10" d="M 104.027344 199.535156 L 104.027344 196.546875 "/>
<path fill="none" stroke-width="1.163976" stroke-linecap="butt" stroke-linejoin="round" stroke="rgb(0%, 0%, 0%)" stroke-opacity="1" stroke-miterlimit="10" d="M 126.5625 199.535156 L 126.5625 196.546875 "/>
<path fill="none" stroke-width="1.163976" stroke-linecap="butt" stroke-linejoin="round" stroke="rgb(0%, 0%, 0%)" stroke-opacity="1" stroke-miterlimit="10" d="M 149.097656 199.535156 L 149.097656 196.546875 "/>
<path fill="none" stroke-width="1.163976" stroke-linecap="butt" stroke-linejoin="round" stroke="rgb(0%, 0%, 0%)" stroke-opacity="1" stroke-miterlimit="10" d="M 171.632812 199.535156 L 171.632812 196.546875 "/>
<path fill="none" stroke-width="1.163976" stroke-linecap="butt" stroke-linejoin="round" stroke="rgb(0%, 0%, 0%)" stroke-opacity="1" stroke-miterlimit="10" d="M 194.167969 199.535156 L 194.167969 196.546875 "/>
<path fill="none" stroke-width="1.163976" stroke-linecap="butt" stroke-linejoin="round" stroke="rgb(0%, 0%, 0%)" stroke-opacity="1" stroke-miterlimit="10" d="M 216.699219 199.535156 L 216.699219 196.546875 "/>
<path fill="none" stroke-width="1.163976" stroke-linecap="butt" stroke-linejoin="round" stroke="rgb(0%, 0%, 0%)" stroke-opacity="1" stroke-miterlimit="10" d="M 239.234375 199.535156 L 239.234375 196.546875 "/>
<path fill="none" stroke-width="1.163976" stroke-linecap="butt" stroke-linejoin="round" stroke="rgb(0%, 0%, 0%)" stroke-opacity="1" stroke-miterlimit="10" d="M 261.769531 199.535156 L 261.769531 196.546875 "/>
<path fill="none" stroke-width="1.163976" stroke-linecap="butt" stroke-linejoin="round" stroke="rgb(0%, 0%, 0%)" stroke-opacity="1" stroke-miterlimit="10" d="M 284.304688 199.535156 L 284.304688 196.546875 "/>
<path fill="none" stroke-width="1.163976" stroke-linecap="butt" stroke-linejoin="round" stroke="rgb(0%, 0%, 0%)" stroke-opacity="1" stroke-miterlimit="10" d="M 306.839844 199.535156 L 306.839844 196.546875 "/>
<path fill="none" stroke-width="1.163976" stroke-linecap="butt" stroke-linejoin="round" stroke="rgb(0%, 0%, 0%)" stroke-opacity="1" stroke-miterlimit="10" d="M 329.375 199.535156 L 329.375 196.546875 "/>
<path fill="none" stroke-width="1.163976" stroke-linecap="butt" stroke-linejoin="round" stroke="rgb(0%, 0%, 0%)" stroke-opacity="1" stroke-miterlimit="10" d="M 351.910156 199.535156 L 351.910156 196.546875 "/>
<path fill="none" stroke-width="1.163976" stroke-linecap="butt" stroke-linejoin="round" stroke="rgb(0%, 0%, 0%)" stroke-opacity="1" stroke-miterlimit="10" d="M 374.445312 199.535156 L 374.445312 196.546875 "/>
<path fill="none" stroke-width="1.163976" stroke-linecap="butt" stroke-linejoin="round" stroke="rgb(0%, 0%, 0%)" stroke-opacity="1" stroke-miterlimit="10" d="M 396.980469 199.535156 L 396.980469 196.546875 "/>
<path fill="none" stroke-width="1.163976" stroke-linecap="butt" stroke-linejoin="round" stroke="rgb(0%, 0%, 0%)" stroke-opacity="1" stroke-miterlimit="10" d="M 419.511719 199.535156 L 419.511719 196.546875 "/>
<path fill="none" stroke-width="1.163976" stroke-linecap="butt" stroke-linejoin="round" stroke="rgb(0%, 0%, 0%)" stroke-opacity="1" stroke-miterlimit="10" d="M 442.046875 199.535156 L 442.046875 196.546875 "/>
<path fill="none" stroke-width="1.163976" stroke-linecap="butt" stroke-linejoin="round" stroke="rgb(0%, 0%, 0%)" stroke-opacity="1" stroke-miterlimit="10" d="M 464.582031 199.535156 L 464.582031 196.546875 "/>
<path fill="none" stroke-width="1.163976" stroke-linecap="butt" stroke-linejoin="round" stroke="rgb(0%, 0%, 0%)" stroke-opacity="1" stroke-miterlimit="10" d="M 487.117188 199.535156 L 487.117188 196.546875 "/>
<path fill="none" stroke-width="1.163976" stroke-linecap="butt" stroke-linejoin="round" stroke="rgb(0%, 0%, 0%)" stroke-opacity="1" stroke-miterlimit="10" d="M 509.652344 199.535156 L 509.652344 196.546875 "/>
<path fill="none" stroke-width="1.163976" stroke-linecap="butt" stroke-linejoin="round" stroke="rgb(0%, 0%, 0%)" stroke-opacity="1" stroke-miterlimit="10" d="M 532.1875 199.535156 L 532.1875 196.546875 "/>
<path fill="none" stroke-width="1.163976" stroke-linecap="butt" stroke-linejoin="round" stroke="rgb(0%, 0%, 0%)" stroke-opacity="1" stroke-miterlimit="10" d="M 554.722656 199.535156 L 554.722656 196.546875 "/>
<g fill="rgb(0%, 0%, 0%)" fill-opacity="1">
<use xlink:href="#glyph-1-0" x="49.421875" y="222.59375"/>
<use xlink:href="#glyph-1-1" x="53.197162" y="218.818463"/>
<use xlink:href="#glyph-1-1" x="56.97245" y="215.043175"/>
<use xlink:href="#glyph-1-0" x="60.747737" y="211.267888"/>
</g>
<g fill="rgb(0%, 0%, 0%)" fill-opacity="1">
<use xlink:href="#glyph-1-0" x="71.957031" y="222.59375"/>
<use xlink:href="#glyph-1-1" x="75.732319" y="218.818463"/>
<use xlink:href="#glyph-1-1" x="79.507606" y="215.043175"/>
<use xlink:href="#glyph-1-2" x="83.282893" y="211.267888"/>
</g>
<g fill="rgb(0%, 0%, 0%)" fill-opacity="1">
<use xlink:href="#glyph-1-0" x="94.492188" y="222.59375"/>
<use xlink:href="#glyph-1-1" x="98.267475" y="218.818463"/>
<use xlink:href="#glyph-1-1" x="102.042762" y="215.043175"/>
<use xlink:href="#glyph-1-3" x="105.818049" y="211.267888"/>
</g>
<g fill="rgb(0%, 0%, 0%)" fill-opacity="1">
<use xlink:href="#glyph-1-0" x="117.027344" y="222.59375"/>
<use xlink:href="#glyph-1-1" x="120.802631" y="218.818463"/>
<use xlink:href="#glyph-1-1" x="124.577918" y="215.043175"/>
<use xlink:href="#glyph-1-4" x="128.353206" y="211.267888"/>
</g>
<g fill="rgb(0%, 0%, 0%)" fill-opacity="1">
<use xlink:href="#glyph-1-0" x="139.5625" y="222.59375"/>
<use xlink:href="#glyph-1-1" x="143.337787" y="218.818463"/>
<use xlink:href="#glyph-1-1" x="147.113075" y="215.043175"/>
<use xlink:href="#glyph-1-5" x="150.888362" y="211.267888"/>
</g>
<g fill="rgb(0%, 0%, 0%)" fill-opacity="1">
<use xlink:href="#glyph-1-0" x="162.097656" y="222.59375"/>
<use xlink:href="#glyph-1-1" x="165.872944" y="218.818463"/>
<use xlink:href="#glyph-1-1" x="169.648231" y="215.043175"/>
<use xlink:href="#glyph-1-6" x="173.423518" y="211.267888"/>
</g>
<g fill="rgb(0%, 0%, 0%)" fill-opacity="1">
<use xlink:href="#glyph-1-0" x="184.632812" y="222.59375"/>
<use xlink:href="#glyph-1-1" x="188.4081" y="218.818463"/>
<use xlink:href="#glyph-1-1" x="192.183387" y="215.043175"/>
<use xlink:href="#glyph-1-7" x="195.958674" y="211.267888"/>
</g>
<g fill="rgb(0%, 0%, 0%)" fill-opacity="1">
<use xlink:href="#glyph-1-0" x="207.164062" y="222.59375"/>
<use xlink:href="#glyph-1-1" x="210.93935" y="218.818463"/>
<use xlink:href="#glyph-1-1" x="214.714637" y="215.043175"/>
<use xlink:href="#glyph-1-8" x="218.489924" y="211.267888"/>
</g>
<g fill="rgb(0%, 0%, 0%)" fill-opacity="1">
<use xlink:href="#glyph-1-0" x="229.699219" y="222.59375"/>
<use xlink:href="#glyph-1-1" x="233.474506" y="218.818463"/>
<use xlink:href="#glyph-1-9" x="237.249793" y="215.043175"/>
<use xlink:href="#glyph-1-1" x="241.025081" y="211.267888"/>
</g>
<g fill="rgb(0%, 0%, 0%)" fill-opacity="1">
<use xlink:href="#glyph-1-0" x="252.234375" y="222.59375"/>
<use xlink:href="#glyph-1-1" x="256.009662" y="218.818463"/>
<use xlink:href="#glyph-1-9" x="259.78495" y="215.043175"/>
<use xlink:href="#glyph-1-9" x="263.560237" y="211.267888"/>
</g>
<g fill="rgb(0%, 0%, 0%)" fill-opacity="1">
<use xlink:href="#glyph-1-0" x="274.769531" y="222.59375"/>
<use xlink:href="#glyph-1-1" x="278.544819" y="218.818463"/>
<use xlink:href="#glyph-1-9" x="282.320106" y="215.043175"/>
<use xlink:href="#glyph-1-0" x="286.095393" y="211.267888"/>
</g>
<g fill="rgb(0%, 0%, 0%)" fill-opacity="1">
<use xlink:href="#glyph-1-0" x="297.304688" y="222.59375"/>
<use xlink:href="#glyph-1-1" x="301.079975" y="218.818463"/>
<use xlink:href="#glyph-1-9" x="304.855262" y="215.043175"/>
<use xlink:href="#glyph-1-2" x="308.630549" y="211.267888"/>
</g>
<g fill="rgb(0%, 0%, 0%)" fill-opacity="1">
<use xlink:href="#glyph-1-0" x="319.839844" y="222.59375"/>
<use xlink:href="#glyph-1-1" x="323.615131" y="218.818463"/>
<use xlink:href="#glyph-1-9" x="327.390418" y="215.043175"/>
<use xlink:href="#glyph-1-3" x="331.165706" y="211.267888"/>
</g>
<g fill="rgb(0%, 0%, 0%)" fill-opacity="1">
<use xlink:href="#glyph-1-0" x="342.375" y="222.59375"/>
<use xlink:href="#glyph-1-1" x="346.150287" y="218.818463"/>
<use xlink:href="#glyph-1-9" x="349.925575" y="215.043175"/>
<use xlink:href="#glyph-1-4" x="353.700862" y="211.267888"/>
</g>
<g fill="rgb(0%, 0%, 0%)" fill-opacity="1">
<use xlink:href="#glyph-1-0" x="364.910156" y="222.59375"/>
<use xlink:href="#glyph-1-1" x="368.685444" y="218.818463"/>
<use xlink:href="#glyph-1-9" x="372.460731" y="215.043175"/>
<use xlink:href="#glyph-1-5" x="376.236018" y="211.267888"/>
</g>
<g fill="rgb(0%, 0%, 0%)" fill-opacity="1">
<use xlink:href="#glyph-1-0" x="387.441406" y="222.59375"/>
<use xlink:href="#glyph-1-1" x="391.216694" y="218.818463"/>
<use xlink:href="#glyph-1-9" x="394.991981" y="215.043175"/>
<use xlink:href="#glyph-1-6" x="398.767268" y="211.267888"/>
</g>
<g fill="rgb(0%, 0%, 0%)" fill-opacity="1">
<use xlink:href="#glyph-1-0" x="409.976562" y="222.59375"/>
<use xlink:href="#glyph-1-1" x="413.75185" y="218.818463"/>
<use xlink:href="#glyph-1-9" x="417.527137" y="215.043175"/>
<use xlink:href="#glyph-1-7" x="421.302424" y="211.267888"/>
</g>
<g fill="rgb(0%, 0%, 0%)" fill-opacity="1">
<use xlink:href="#glyph-1-0" x="432.511719" y="222.59375"/>
<use xlink:href="#glyph-1-1" x="436.287006" y="218.818463"/>
<use xlink:href="#glyph-1-9" x="440.062293" y="215.043175"/>
<use xlink:href="#glyph-1-8" x="443.837581" y="211.267888"/>
</g>
<g fill="rgb(0%, 0%, 0%)" fill-opacity="1">
<use xlink:href="#glyph-1-0" x="455.046875" y="222.59375"/>
<use xlink:href="#glyph-1-1" x="458.822162" y="218.818463"/>
<use xlink:href="#glyph-1-0" x="462.59745" y="215.043175"/>
<use xlink:href="#glyph-1-1" x="466.372737" y="211.267888"/>
</g>
<g fill="rgb(0%, 0%, 0%)" fill-opacity="1">
<use xlink:href="#glyph-1-0" x="477.582031" y="222.59375"/>
<use xlink:href="#glyph-1-1" x="481.357319" y="218.818463"/>
<use xlink:href="#glyph-1-0" x="485.132606" y="215.043175"/>
<use xlink:href="#glyph-1-9" x="488.907893" y="211.267888"/>
</g>
<g fill="rgb(0%, 0%, 0%)" fill-opacity="1">
<use xlink:href="#glyph-1-0" x="500.117188" y="222.59375"/>
<use xlink:href="#glyph-1-1" x="503.892475" y="218.818463"/>
<use xlink:href="#glyph-1-0" x="507.667762" y="215.043175"/>
<use xlink:href="#glyph-1-0" x="511.443049" y="211.267888"/>
</g>
<g fill="rgb(0%, 0%, 0%)" fill-opacity="1">
<use xlink:href="#glyph-1-0" x="522.652344" y="222.59375"/>
<use xlink:href="#glyph-1-1" x="526.427631" y="218.818463"/>
<use xlink:href="#glyph-1-0" x="530.202918" y="215.043175"/>
<use xlink:href="#glyph-1-2" x="533.978206" y="211.267888"/>
</g>
<g fill="rgb(0%, 0%, 0%)" fill-opacity="1">
<use xlink:href="#glyph-1-0" x="545.1875" y="222.59375"/>
<use xlink:href="#glyph-1-1" x="548.962787" y="218.818463"/>
<use xlink:href="#glyph-1-0" x="552.738075" y="215.043175"/>
<use xlink:href="#glyph-1-3" x="556.513362" y="211.267888"/>
</g>
<g fill="rgb(0%, 0%, 0%)" fill-opacity="1">
<use xlink:href="#glyph-2-0" x="296.75" y="237.308594"/>
<use xlink:href="#glyph-2-1" x="304.753906" y="237.308594"/>
<use xlink:href="#glyph-2-2" x="311.427734" y="237.308594"/>
<use xlink:href="#glyph-2-3" x="318.101562" y="237.308594"/>
</g>
<g fill="rgb(0%, 0%, 0%)" fill-opacity="1">
<use xlink:href="#glyph-3-0" x="15.566406" y="143.285156"/>
<use xlink:href="#glyph-3-1" x="15.566406" y="134.619141"/>
<use xlink:href="#glyph-3-2" x="15.566406" y="127.945312"/>
<use xlink:href="#glyph-3-3" x="15.566406" y="121.271484"/>
<use xlink:href="#glyph-3-4" x="15.566406" y="114.597656"/>
<use xlink:href="#glyph-3-5" x="15.566406" y="110.601562"/>
<use xlink:href="#glyph-3-1" x="15.566406" y="107.267578"/>
<use xlink:href="#glyph-3-6" x="15.566406" y="100.59375"/>
<use xlink:href="#glyph-3-7" x="15.566406" y="93.919922"/>
<use xlink:href="#glyph-3-8" x="15.566406" y="90.585938"/>
<use xlink:href="#glyph-3-9" x="15.566406" y="84.585938"/>
<use xlink:href="#glyph-3-10" x="15.566406" y="77.912109"/>
<use xlink:href="#glyph-3-1" x="15.566406" y="71.912109"/>
<use xlink:href="#glyph-3-10" x="15.566406" y="65.238281"/>
</g>
<path fill-rule="nonzero" fill="rgb(100%, 100%, 100%)" fill-opacity="1" d="M 177.207031 282.023438 L 441.632812 282.023438 L 441.632812 252.789062 L 177.207031 252.789062 Z M 177.207031 282.023438 "/>
<g fill="rgb(0%, 0%, 0%)" fill-opacity="1">
<use xlink:href="#glyph-4-0" x="183.183594" y="271.484375"/>
<use xlink:href="#glyph-4-1" x="190.405273" y="271.484375"/>
<use xlink:href="#glyph-4-2" x="195.966797" y="271.484375"/>
<use xlink:href="#glyph-4-3" x="200.966797" y="271.484375"/>
<use xlink:href="#glyph-4-4" x="206.52832" y="271.484375"/>
<use xlink:href="#glyph-4-5" x="209.306641" y="271.484375"/>
<use xlink:href="#glyph-4-6" x="212.084961" y="271.484375"/>
<use xlink:href="#glyph-4-7" x="217.084961" y="271.484375"/>
<use xlink:href="#glyph-4-3" x="222.646484" y="271.484375"/>
</g>
<path fill-rule="nonzero" fill="rgb(100%, 100%, 100%)" fill-opacity="1" d="M 234.1875 276.042969 L 251.46875 276.042969 L 251.46875 258.761719 L 234.1875 258.761719 Z M 234.1875 276.042969 "/>
<path fill-rule="nonzero" fill="rgb(90.196078%, 62.352941%, 0%)" fill-opacity="1" stroke-width="0.426791" stroke-linecap="butt" stroke-linejoin="miter" stroke="rgb(100%, 100%, 100%)" stroke-opacity="1" stroke-miterlimit="10" d="M 234.472656 275.761719 L 251.1875 275.761719 L 251.1875 259.046875 L 234.472656 259.046875 Z M 234.472656 275.761719 "/>
<path fill-rule="nonzero" fill="rgb(100%, 100%, 100%)" fill-opacity="1" d="M 326.785156 276.042969 L 344.066406 276.042969 L 344.066406 258.761719 L 326.785156 258.761719 Z M 326.785156 276.042969 "/>
<path fill-rule="nonzero" fill="rgb(33.72549%, 70.588235%, 91.372549%)" fill-opacity="1" stroke-width="0.426791" stroke-linecap="butt" stroke-linejoin="miter" stroke="rgb(100%, 100%, 100%)" stroke-opacity="1" stroke-miterlimit="10" d="M 327.070312 275.761719 L 343.785156 275.761719 L 343.785156 259.046875 L 327.070312 259.046875 Z M 327.070312 275.761719 "/>
<g fill="rgb(0%, 0%, 0%)" fill-opacity="1">
<use xlink:href="#glyph-4-8" x="257.445312" y="271.484375"/>
<use xlink:href="#glyph-4-3" x="264.666992" y="271.484375"/>
<use xlink:href="#glyph-4-9" x="270.228516" y="271.484375"/>
<use xlink:href="#glyph-4-10" x="275.790039" y="271.484375"/>
<use xlink:href="#glyph-4-11" x="279.120117" y="271.484375"/>
<use xlink:href="#glyph-4-12" x="284.681641" y="271.484375"/>
<use xlink:href="#glyph-4-13" x="286.90332" y="271.484375"/>
<use xlink:href="#glyph-4-14" x="292.464844" y="271.484375"/>
<use xlink:href="#glyph-4-1" x="297.464844" y="271.484375"/>
<use xlink:href="#glyph-4-2" x="303.026367" y="271.484375"/>
<use xlink:href="#glyph-4-12" x="308.026367" y="271.484375"/>
<use xlink:href="#glyph-4-14" x="310.248047" y="271.484375"/>
<use xlink:href="#glyph-4-3" x="315.248047" y="271.484375"/>
</g>
<g fill="rgb(0%, 0%, 0%)" fill-opacity="1">
<use xlink:href="#glyph-4-8" x="350.042969" y="271.484375"/>
<use xlink:href="#glyph-4-11" x="357.264648" y="271.484375"/>
<use xlink:href="#glyph-4-13" x="362.826172" y="271.484375"/>
<use xlink:href="#glyph-4-15" x="368.387695" y="271.484375"/>
<use xlink:href="#glyph-4-13" x="373.949219" y="271.484375"/>
<use xlink:href="#glyph-4-3" x="379.510742" y="271.484375"/>
<use xlink:href="#glyph-4-9" x="385.072266" y="271.484375"/>
<use xlink:href="#glyph-4-10" x="390.633789" y="271.484375"/>
<use xlink:href="#glyph-4-11" x="393.963867" y="271.484375"/>
<use xlink:href="#glyph-4-12" x="399.525391" y="271.484375"/>
<use xlink:href="#glyph-4-13" x="401.74707" y="271.484375"/>
<use xlink:href="#glyph-4-14" x="407.308594" y="271.484375"/>
<use xlink:href="#glyph-4-1" x="412.308594" y="271.484375"/>
<use xlink:href="#glyph-4-2" x="417.870117" y="271.484375"/>
<use xlink:href="#glyph-4-12" x="422.870117" y="271.484375"/>
<use xlink:href="#glyph-4-14" x="425.091797" y="271.484375"/>
<use xlink:href="#glyph-4-3" x="430.091797" y="271.484375"/>
</g>
</svg>
